<svg width="24" height="24" viewBox="0 0 24 24" fill="none" xmlns="http://www.w3.org/2000/svg">
<mask id="path-1-inside-1_1906_6212" fill="white">
<path d="M16.918 3C20.2768 3 23 5.79821 23 9.25C23 12.7018 22.0673 14.6321 18.1348 18C14.4857 21.125 14.4854 21.125 12.0527 23C12.0003 22.9999 11.9513 22.9794 11.9033 22.9424C11.8891 22.9617 11.8758 22.9816 11.8613 23C9.44788 21.1252 9.44757 21.1249 5.82715 18C1.92538 14.6322 1.00002 12.7017 1 9.25C1 5.79823 3.70162 3.00008 7.03418 3C9.06657 3 10.8627 4.04174 11.9561 5.63672C13.0579 4.04143 14.8694 3.00015 16.918 3Z"/>
</mask>
<path d="M16.918 3C20.2768 3 23 5.79821 23 9.25C23 12.7018 22.0673 14.6321 18.1348 18C14.4857 21.125 14.4854 21.125 12.0527 23C12.0003 22.9999 11.9513 22.9794 11.9033 22.9424C11.8891 22.9617 11.8758 22.9816 11.8613 23C9.44788 21.1252 9.44757 21.1249 5.82715 18C1.92538 14.6322 1.00002 12.7017 1 9.25C1 5.79823 3.70162 3.00008 7.03418 3C9.06657 3 10.8627 4.04174 11.9561 5.63672C13.0579 4.04143 14.8694 3.00015 16.918 3Z" fill="#B6B6B6"/>
<path d="M16.918 3V1.6H16.9179L16.918 3ZM23 9.25H24.4V9.24999L23 9.25ZM18.1348 18L19.0454 19.0633L19.0454 19.0633L18.1348 18ZM12.0527 23L12.0507 24.4L12.5288 24.4007L12.9074 24.1089L12.0527 23ZM11.9033 22.9424L12.7579 21.8335L11.6235 20.9592L10.7753 22.1132L11.9033 22.9424ZM11.8613 23L11.0025 24.1056L12.0991 24.9575L12.9599 23.8678L11.8613 23ZM5.82715 18L4.91238 19.0598L4.91238 19.0598L5.82715 18ZM1 9.25H-0.4V9.25001L1 9.25ZM7.03418 3V1.6H7.03415L7.03418 3ZM11.9561 5.63672L10.8013 6.42831L11.9517 8.10642L13.108 6.43236L11.9561 5.63672ZM16.918 3V4.4C19.4679 4.4 21.6 6.53524 21.6 9.25001L23 9.25L24.4 9.24999C24.4 5.06119 21.0857 1.6 16.918 1.6V3ZM23 9.25H21.6C21.6 10.8358 21.3879 11.9272 20.8117 12.9885C20.2109 14.0953 19.1517 15.2859 17.2241 16.9367L18.1348 18L19.0454 19.0633C21.0504 17.3462 22.4238 15.8877 23.2725 14.3244C24.1458 12.7156 24.4 11.116 24.4 9.25H23ZM18.1348 18L17.2241 16.9367C13.5845 20.0536 13.6043 20.0365 11.1981 21.8911L12.0527 23L12.9074 24.1089C15.3665 22.2135 15.3869 22.1965 19.0454 19.0633L18.1348 18ZM12.0527 23L12.0547 21.6C12.3958 21.6005 12.6386 21.7416 12.7579 21.8335L11.9033 22.9424L11.0487 24.0513C11.264 24.2172 11.6049 24.3994 12.0507 24.4L12.0527 23ZM11.9033 22.9424L10.7753 22.1132C10.7657 22.1263 10.7575 22.1377 10.7523 22.145C10.7498 22.1486 10.7473 22.1521 10.7458 22.1542C10.744 22.1567 10.7431 22.158 10.7424 22.159C10.741 22.161 10.7425 22.1588 10.7455 22.1547C10.7487 22.1504 10.7546 22.1425 10.7627 22.1322L11.8613 23L12.9599 23.8678C12.9894 23.8305 13.0126 23.798 13.0225 23.7841C13.0252 23.7803 13.0278 23.7767 13.0295 23.7743C13.0314 23.7715 13.0324 23.7702 13.0333 23.7689C13.035 23.7665 13.0339 23.7681 13.0314 23.7716L11.9033 22.9424ZM11.8613 23L12.7202 21.8944C10.3332 20.0401 10.353 20.0571 6.74191 16.9402L5.82715 18L4.91238 19.0598C8.54212 22.1928 8.56253 22.2102 11.0025 24.1056L11.8613 23ZM5.82715 18L6.74192 16.9402C4.83002 15.2899 3.77924 14.0996 3.18301 12.9926C2.61078 11.9301 2.40001 10.8371 2.4 9.24999L1 9.25L-0.4 9.25001C-0.399989 11.1146 -0.148066 12.7127 0.71783 14.3203C1.55972 15.8834 2.92251 17.3423 4.91238 19.0598L5.82715 18ZM1 9.25H2.4C2.4 6.52468 4.52076 4.40006 7.03421 4.4L7.03418 3L7.03415 1.6C2.88248 1.60009 -0.4 5.07178 -0.4 9.25H1ZM7.03418 3V4.4C8.57157 4.4 9.94955 5.18579 10.8013 6.42831L11.9561 5.63672L13.1108 4.84513C11.7758 2.89769 9.56158 1.6 7.03418 1.6V3ZM11.9561 5.63672L13.108 6.43236C13.9658 5.19043 15.3591 4.40011 16.9181 4.4L16.918 3L16.9179 1.6C14.3798 1.60019 12.1501 2.89242 10.8041 4.84108L11.9561 5.63672Z" fill="white" mask="url(#path-1-inside-1_1906_6212)"/>
</svg>
