<svg width="24" height="24" viewBox="0 0 24 24" fill="none" xmlns="http://www.w3.org/2000/svg">
<g clip-path="url(#clip0_1906_7544)">
<g filter="url(#filter0_d_1906_7544)">
<path d="M16.918 3C20.2768 3 23 5.79821 23 9.25C23 12.7018 22.0673 14.6321 18.1348 18C14.4857 21.125 14.4854 21.125 12.0527 23C12.0003 22.9999 11.9513 22.9794 11.9033 22.9424C11.8891 22.9617 11.8758 22.9816 11.8613 23C9.44788 21.1252 9.44757 21.1249 5.82715 18C1.92538 14.6322 1.00002 12.7017 1 9.25C1 5.79823 3.70162 3.00008 7.03418 3C9.06657 3 10.8627 4.04174 11.9561 5.63672C13.0579 4.04143 14.8694 3.00015 16.918 3Z" fill="#DB1212"/>
</g>
</g>
<defs>
<filter id="filter0_d_1906_7544" x="-9" y="-7" width="42" height="40" filterUnits="userSpaceOnUse" color-interpolation-filters="sRGB">
<feFlood flood-opacity="0" result="BackgroundImageFix"/>
<feColorMatrix in="SourceAlpha" type="matrix" values="0 0 0 0 0 0 0 0 0 0 0 0 0 0 0 0 0 0 127 0" result="hardAlpha"/>
<feOffset/>
<feGaussianBlur stdDeviation="5"/>
<feComposite in2="hardAlpha" operator="out"/>
<feColorMatrix type="matrix" values="0 0 0 0 0 0 0 0 0 0 0 0 0 0 0 0 0 0 0.04 0"/>
<feBlend mode="normal" in2="BackgroundImageFix" result="effect1_dropShadow_1906_7544"/>
<feBlend mode="normal" in="SourceGraphic" in2="effect1_dropShadow_1906_7544" result="shape"/>
</filter>
<clipPath id="clip0_1906_7544">
<rect width="24" height="24" fill="white"/>
</clipPath>
</defs>
</svg>
