<svg width="16" height="16" viewBox="0 0 16 16" fill="none" xmlns="http://www.w3.org/2000/svg">
<path d="M7.82186 1.84907C7.89609 1.70362 8.10391 1.70362 8.17814 1.84907L10.0521 5.52119C10.0812 5.57813 10.1357 5.61775 10.1989 5.62779L14.2704 6.27533C14.4316 6.30097 14.4959 6.49863 14.3805 6.61417L11.4672 9.5312C11.422 9.57644 11.4012 9.64054 11.4111 9.70369L12.0534 13.776C12.0789 13.9373 11.9107 14.0595 11.7652 13.9854L8.09068 12.1161C8.0337 12.0871 7.9663 12.0871 7.90932 12.1161L4.2348 13.9854C4.08926 14.0595 3.92112 13.9373 3.94656 13.776L4.58888 9.70369C4.59884 9.64054 4.57801 9.57644 4.53283 9.5312L1.61954 6.61417C1.50415 6.49863 1.56837 6.30097 1.72964 6.27533L5.80113 5.62779C5.86426 5.61775 5.9188 5.57813 5.94786 5.52118L7.82186 1.84907Z" fill="#FFCF40"/>
</svg>
