<svg width="18" height="19" viewBox="0 0 18 19" fill="none" xmlns="http://www.w3.org/2000/svg">
<path d="M9.33867 16.9014C9.85271 17.6066 10.7961 17.8454 11.5838 17.4697C13.0781 16.7571 13.5605 14.8645 12.5896 13.5234L11.0057 11.3359C10.8445 11.1133 10.8293 10.8168 10.9656 10.5781C11.102 10.3395 11.3649 10.2028 11.6385 10.2285L11.7703 10.2402C14.5755 10.5048 16.9998 8.29819 16.9998 5.48047C16.9996 2.84037 14.8596 0.700382 12.2195 0.700195H5.7C4.98203 0.700195 4.40019 1.28203 4.40019 2V10.126L9.33867 16.9014Z" stroke="#4F7BD4" stroke-width="1.4" stroke-linecap="round" stroke-linejoin="round"/>
<path d="M5.08709 1.17613H0.699997V10.5879H4.53871" stroke="#4F7BD4" stroke-width="1.4"/>
<path d="M0.699997 1.17613H5.08709L4.53871 10.5879H0.699997V1.17613Z" fill="#4F7BD4" fill-opacity="0.3"/>
</svg>
