<svg width="24" height="24" viewBox="0 0 24 24" fill="none" xmlns="http://www.w3.org/2000/svg">
<path d="M12 17C14.2091 17 16 15.2091 16 13C16 10.7909 14.2091 9 12 9C9.79086 9 8 10.7909 8 13C8 15.2091 9.79086 17 12 17Z" stroke="#800025" stroke-width="1.4" stroke-linecap="round" stroke-linejoin="round"/>
<rect x="17" y="8.5" width="2" height="1.4" rx="0.7" fill="#800025"/>
<path d="M22 18.2222C22 18.6937 21.8084 19.1459 21.4675 19.4793C21.1265 19.8127 20.664 20 20.1818 20H3.81818C3.33597 20 2.87351 19.8127 2.53253 19.4793C2.19156 19.1459 2 18.6937 2 18.2222V8.44444C2 7.97295 2.19156 7.52076 2.53253 7.18737C2.87351 6.85397 3.33597 6.66667 3.81818 6.66667H7.45455L8.67728 4.87333C9.04983 4.32692 9.6684 4 10.3297 4H13.6703C14.3316 4 14.9502 4.32692 15.3227 4.87333L16.5455 6.66667H20.1818C20.664 6.66667 21.1265 6.85397 21.4675 7.18737C21.8084 7.52076 22 7.97295 22 8.44444V18.2222Z" stroke="#800025" stroke-width="1.4" stroke-linecap="round" stroke-linejoin="round"/>
</svg>
