<svg width="24" height="24" viewBox="0 0 24 24" fill="none" xmlns="http://www.w3.org/2000/svg">
<circle cx="12" cy="12" r="8.5" fill="#800025" fill-opacity="0.08"/>
<path d="M17.5301 5.34108C19.1101 6.6505 20.1773 8.47557 20.5437 10.4947C20.91 12.5138 20.552 14.5974 19.5327 16.3785C18.5135 18.1595 16.8983 19.5237 14.9719 20.2307C13.0455 20.9377 10.9313 20.9421 9.00191 20.2432C7.07254 19.5443 5.45168 18.1868 4.425 16.4101C3.39831 14.6333 3.03158 12.5512 3.38948 10.5306C3.74739 8.50995 4.80692 6.68045 6.38143 5.36441C7.95593 4.04837 9.9444 3.33024 11.9965 3.3365" stroke="#800025" stroke-width="1.35549"/>
<path d="M20.5342 4.49023L16.871 4.83324C16.7645 4.84322 16.6863 4.93762 16.6963 5.0441L17.0393 8.70726" stroke="#800025" stroke-width="1.35549" stroke-linecap="round"/>
<path d="M8 12.3077L11.0075 15L16 10" stroke="#800025" stroke-width="1.4"/>
</svg>
