<svg width="24" height="24" viewBox="0 0 24 24" fill="none" xmlns="http://www.w3.org/2000/svg">
<g clip-path="url(#clip0_3772_29489)">
<path d="M6.84519 2.1512C8.72893 1.18754 11.0585 1.86092 12.1284 3.7141L19.2256 16.0068L19.3083 16.1676C19.485 16.5495 19.5376 16.9794 19.4555 17.3952L18.6455 21.4961L18.6178 21.6045C18.4519 22.1322 17.8785 22.4322 17.3413 22.249L13.384 20.9006C12.9256 20.7443 12.5395 20.4262 12.2974 20.0068L5.2002 7.7141C4.09568 5.80102 4.75121 3.35452 6.6643 2.25L6.84519 2.1512ZM7.51063 8.9151L13.5101 19.3066C13.5828 19.4324 13.6989 19.528 13.8364 19.5749L17.3601 20.7757L18.082 17.1237C18.1102 16.9812 18.0854 16.8328 18.0128 16.707L12.0133 6.31549L7.51063 8.9151ZM7.36449 3.46277C6.12102 4.18069 5.69505 5.77043 6.41297 7.01391L6.81043 7.70233L11.3131 5.10272L10.9156 4.4143C10.1977 3.17088 8.60794 2.74498 7.36449 3.46277Z" fill="black"/>
</g>
<defs>
<clipPath id="clip0_3772_29489">
<rect width="24" height="24" fill="white"/>
</clipPath>
</defs>
</svg>
