<svg width="18" height="19" viewBox="0 0 18 19" fill="none" xmlns="http://www.w3.org/2000/svg">
<path d="M9.33867 2.09863C9.85271 1.39344 10.7961 1.15465 11.5838 1.53027C13.0781 2.24295 13.5605 4.13554 12.5896 5.47656L11.0057 7.66406C10.8445 7.8867 10.8293 8.18321 10.9656 8.42188C11.102 8.66049 11.3649 8.79721 11.6385 8.77148L11.7703 8.75977C14.5755 8.49519 16.9998 10.7018 16.9998 13.5195C16.9996 16.1596 14.8596 18.2996 12.2195 18.2998H5.7C4.98203 18.2998 4.40019 17.718 4.40019 17V8.87402L9.33867 2.09863Z" stroke="#EF4444" stroke-width="1.4" stroke-linecap="round" stroke-linejoin="round"/>
<path d="M5.08709 17.8239H0.699997V8.41211H4.53871" stroke="#EF4444" stroke-width="1.4"/>
<path d="M0.699997 17.8239H5.08709L4.53871 8.41211H0.699997V17.8239Z" fill="#EF4444" fill-opacity="0.3"/>
</svg>
