<svg width="100" height="100" viewBox="0 0 100 100" fill="none" xmlns="http://www.w3.org/2000/svg">
<path d="M74.6268 65.7976C85.8787 64.283 93.4018 50.5067 91.4302 35.0275C89.4586 19.5482 78.7389 8.2277 67.487 9.74235C56.2352 11.257 48.7121 25.0333 50.6837 40.5125C52.6553 55.9917 63.375 67.3123 74.6268 65.7976Z" fill="white" stroke="#DADADA" stroke-width="3.5" stroke-miterlimit="10"/>
<path d="M74.1196 61.7568C80.8169 60.8552 85.2058 51.9572 83.9225 41.8824C82.6393 31.8077 76.1699 24.3714 69.4726 25.2729C62.7754 26.1744 58.3865 35.0725 59.6697 45.1472C60.9529 55.2219 67.4224 62.6583 74.1196 61.7568Z" fill="#DADADA"/>
<path d="M51.8788 70.3214C62.6447 66.6333 67.4802 51.637 62.6794 36.8263C57.8785 22.0156 45.2592 12.999 34.4933 16.6872C23.7275 20.3754 18.8919 35.3717 23.6927 50.1823C28.4936 64.993 41.1129 74.0096 51.8788 70.3214Z" fill="white" stroke="#DADADA" stroke-width="3.5" stroke-miterlimit="10"/>
<path d="M45.9912 68.8567C53.9003 66.1472 57.6669 55.7908 54.4041 45.7251C51.1413 35.6594 42.0847 29.696 34.1755 32.4055C26.2664 35.115 22.4998 45.4714 25.7626 55.5371C29.0254 65.6029 38.082 71.5663 45.9912 68.8567Z" fill="#DADADA"/>
<circle opacity="0.6" cx="30.0888" cy="68.1364" r="24.8571" fill="#F9F9F9"/>
<path d="M29.9761 41.9155C44.1774 41.9157 55.6907 53.4281 55.6909 67.6294L55.6821 68.2935C55.5225 74.5908 53.0979 80.3248 49.1938 84.7134L55.1519 90.6714C55.9329 91.4524 55.9329 92.7185 55.1519 93.4995C54.3708 94.2803 53.1047 94.2805 52.3237 93.4995L46.311 87.4868C41.8691 91.1451 36.1798 93.3442 29.9761 93.3442L29.313 93.3354C15.4182 92.9835 4.26247 81.6089 4.26221 67.6294C4.26243 53.4281 15.7748 41.9158 29.9761 41.9155ZM29.9761 45.9155C17.9839 45.9158 8.26243 55.6373 8.26221 67.6294C8.26247 79.6215 17.984 89.344 29.9761 89.3442C41.9683 89.3441 51.6907 79.6216 51.6909 67.6294C51.6907 55.6372 41.9683 45.9157 29.9761 45.9155Z" fill="#DADADA"/>
</svg>
