<svg width="20" height="13" viewBox="0 0 20 13" fill="none" xmlns="http://www.w3.org/2000/svg">
<path d="M4.8172 0.700195V0.000195324H4.81713L4.8172 0.700195ZM8.93536 4.81738H9.63536V4.8173L8.93536 4.81738ZM6.88654 8.37598L6.5341 7.77117L6.43838 7.82695L6.36457 7.90956L6.88654 8.37598ZM3.7215 11.918L3.32822 12.497L3.83515 12.8413L4.24347 12.3844L3.7215 11.918ZM2.57404 11.1387L1.94794 10.8256L1.67397 11.3736L2.18076 11.7177L2.57404 11.1387ZM3.60138 8.75195L4.26761 8.96674L4.48507 8.29222L3.80792 8.08312L3.60138 8.75195ZM0.700012 4.81738L1.2219e-05 4.8173V4.81738H0.700012ZM4.8172 0.700195V1.4002C6.70467 1.4002 8.23515 2.93026 8.23536 4.81746L8.93536 4.81738L9.63536 4.8173C9.63506 2.15676 7.4776 0.000195324 4.8172 0.000195324V0.700195ZM8.93536 4.81738H8.23536C8.23536 6.0769 7.55293 7.17748 6.5341 7.77117L6.88654 8.37598L7.23897 8.98078C8.66917 8.14737 9.63536 6.59671 9.63536 4.81738H8.93536ZM6.88654 8.37598L6.36457 7.90956L3.19953 11.4515L3.7215 11.918L4.24347 12.3844L7.40851 8.8424L6.88654 8.37598ZM3.7215 11.918L4.11478 11.3389L2.96732 10.5596L2.57404 11.1387L2.18076 11.7177L3.32822 12.497L3.7215 11.918ZM2.57404 11.1387L3.20014 11.4517C3.6187 10.6146 4.0197 9.73572 4.26761 8.96674L3.60138 8.75195L2.93515 8.53716C2.72054 9.20282 2.35795 10.0056 1.94794 10.8256L2.57404 11.1387ZM3.60138 8.75195L3.80792 8.08312C2.41258 7.65224 1.40001 6.35219 1.40001 4.81738H0.700012H1.2219e-05C1.2219e-05 6.98381 1.42969 8.81395 3.39484 9.42079L3.60138 8.75195ZM0.700012 4.81738L1.40001 4.81746C1.40023 2.93026 2.93009 1.40038 4.81727 1.4002L4.8172 0.700195L4.81713 0.000195324C2.15684 0.000462711 0.000316083 2.15704 1.2219e-05 4.8173L0.700012 4.81738Z" fill="#191919"/>
<path d="M15.0526 0.700195V0.000195324H15.0525L15.0526 0.700195ZM19.1707 4.81738H19.8707V4.8173L19.1707 4.81738ZM17.1219 8.37598L16.7695 7.77117L16.6737 7.82695L16.5999 7.90956L17.1219 8.37598ZM13.9568 11.918L13.5636 12.497L14.0705 12.8413L14.4788 12.3844L13.9568 11.918ZM12.8094 11.1387L12.1833 10.8256L11.9093 11.3736L12.4161 11.7177L12.8094 11.1387ZM13.8367 8.75195L14.503 8.96674L14.7204 8.29222L14.0433 8.08312L13.8367 8.75195ZM10.9354 4.81738L10.2354 4.8173V4.81738H10.9354ZM15.0526 0.700195V1.4002C16.94 1.4002 18.4705 2.93026 18.4707 4.81746L19.1707 4.81738L19.8707 4.8173C19.8704 2.15676 17.7129 0.000195324 15.0526 0.000195324V0.700195ZM19.1707 4.81738H18.4707C18.4707 6.0769 17.7883 7.17748 16.7695 7.77117L17.1219 8.37598L17.4743 8.98078C18.9045 8.14737 19.8707 6.59671 19.8707 4.81738H19.1707ZM17.1219 8.37598L16.5999 7.90956L13.4349 11.4515L13.9568 11.918L14.4788 12.3844L17.6439 8.8424L17.1219 8.37598ZM13.9568 11.918L14.3501 11.3389L13.2027 10.5596L12.8094 11.1387L12.4161 11.7177L13.5636 12.497L13.9568 11.918ZM12.8094 11.1387L13.4355 11.4517C13.8541 10.6146 14.255 9.73572 14.503 8.96674L13.8367 8.75195L13.1705 8.53716C12.9559 9.20282 12.5933 10.0056 12.1833 10.8256L12.8094 11.1387ZM13.8367 8.75195L14.0433 8.08312C12.6479 7.65224 11.6354 6.35219 11.6354 4.81738H10.9354H10.2354C10.2354 6.98381 11.665 8.81395 13.6302 9.42079L13.8367 8.75195ZM10.9354 4.81738L11.6354 4.81746C11.6356 2.93026 13.1654 1.40038 15.0526 1.4002L15.0526 0.700195L15.0525 0.000195324C12.3922 0.000462711 10.2357 2.15704 10.2354 4.8173L10.9354 4.81738Z" fill="#191919"/>
</svg>
