<svg width="22" height="25" viewBox="0 0 22 25" fill="none" xmlns="http://www.w3.org/2000/svg">
<path d="M20.5195 19.8555C20.9733 19.8555 21.2002 20.11 21.2002 20.6191C21.2002 21.0397 20.8792 21.4603 20.2373 21.8809C19.042 22.6667 18.0348 23.1813 17.2158 23.4248C15.6774 23.8786 14.0615 24.1055 12.3682 24.1055C10.6748 24.1055 9.04232 23.8066 7.4707 23.209C5.91016 22.6003 4.5765 21.7536 3.46973 20.6689C1.15658 18.389 0 15.445 0 11.8369C0 10.0993 0.326497 8.50553 0.979492 7.05566C1.63249 5.59473 2.53451 4.34408 3.68555 3.30371C6.12044 1.10124 9.18066 0 12.8662 0C14.9359 0 16.7565 0.354167 18.3281 1.0625C19.9993 1.80404 20.835 2.4349 20.835 2.95508C20.835 3.16536 20.763 3.34798 20.6191 3.50293C20.4863 3.65788 20.3314 3.73535 20.1543 3.73535C19.8001 3.73535 19.4792 3.5804 19.1914 3.27051C18.9036 2.94954 18.5107 2.66178 18.0127 2.40723C17.5257 2.15267 16.9889 1.93132 16.4023 1.74316C15.207 1.37793 14.1169 1.19531 13.1318 1.19531C12.1579 1.19531 11.3499 1.26172 10.708 1.39453L10.708 22.6777C11.4827 22.8105 12.1689 22.877 12.7666 22.877C13.3643 22.877 13.973 22.8382 14.5928 22.7607C15.2126 22.6833 15.8213 22.556 16.4189 22.3789C17.7581 21.9805 18.7653 21.3939 19.4404 20.6191C19.6839 20.3314 19.8776 20.1322 20.0215 20.0215C20.1654 19.9108 20.3314 19.8555 20.5195 19.8555Z" fill="#430111"/>
</svg>
