<svg width="33" height="32" viewBox="0 0 33 32" fill="none" xmlns="http://www.w3.org/2000/svg">
<path d="M16.2472 0.108838C16.3214 -0.0366123 16.5292 -0.0366126 16.6034 0.108838L21.625 9.94866C21.6541 10.0056 21.7086 10.0452 21.7718 10.0553L32.6817 11.7904C32.843 11.8161 32.9072 12.0137 32.7918 12.1293L24.9854 19.9458C24.9402 19.991 24.9194 20.0551 24.9293 20.1182L26.6505 31.0304C26.6759 31.1918 26.5078 31.3139 26.3622 31.2399L16.516 26.2309C16.459 26.2019 16.3916 26.2019 16.3346 26.2309L6.48835 31.2399C6.34281 31.3139 6.17467 31.1918 6.20011 31.0304L7.92126 20.1182C7.93122 20.0551 7.91039 19.991 7.86522 19.9458L0.0587413 12.1293C-0.0566523 12.0137 0.00757039 11.8161 0.16884 11.7904L11.0788 10.0553C11.142 10.0452 11.1965 10.0056 11.2256 9.94866L16.2472 0.108838Z" fill="#DADADA"/>
</svg>
