<svg width="40" height="40" viewBox="0 0 40 40" fill="none" xmlns="http://www.w3.org/2000/svg">
<path d="M19.8219 4.09907C19.8961 3.95362 20.1039 3.95362 20.1781 4.09907L25.1997 13.9389C25.2288 13.9958 25.2833 14.0355 25.3465 14.0455L36.2565 15.7806C36.4177 15.8063 36.4819 16.004 36.3666 16.1195L28.5601 23.936C28.5149 23.9812 28.4941 24.0453 28.504 24.1085L30.2252 35.0207C30.2506 35.182 30.0825 35.3041 29.9369 35.2301L20.0907 30.2211C20.0337 30.1921 19.9663 30.1921 19.9093 30.2211L10.0631 35.2301C9.91751 35.3041 9.74938 35.182 9.77482 35.0207L11.496 24.1085C11.5059 24.0453 11.4851 23.9812 11.4399 23.936L3.63345 16.1195C3.51805 16.004 3.58228 15.8063 3.74355 15.7806L14.6535 14.0455C14.7167 14.0355 14.7712 13.9958 14.8003 13.9389L19.8219 4.09907Z" fill="#DADADA"/>
</svg>
