<svg width="100" height="100" viewBox="0 0 100 100" fill="none" xmlns="http://www.w3.org/2000/svg">
<rect width="100" height="100" fill="white"/>
<path d="M64.6264 83.7991C75.8782 82.2844 83.4013 68.5082 81.4297 53.0289C79.4581 37.5497 68.7384 26.2292 57.4865 27.7438C46.2347 29.2585 38.7116 43.0347 40.6832 58.514C42.6548 73.9932 53.3745 85.3137 64.6264 83.7991Z" fill="white" stroke="#DADADA" stroke-width="3.5" stroke-miterlimit="10"/>
<path d="M65.2646 80.1171C71.9619 79.2156 76.3508 70.3175 75.0676 60.2428C73.7843 50.1681 67.3149 42.7317 60.6176 43.6332C53.9204 44.5348 49.5315 53.4328 50.8147 63.5076C52.0979 73.5823 58.5674 81.0187 65.2646 80.1171Z" fill="#DADADA"/>
<path d="M41.8788 88.3214C52.6447 84.6333 57.4802 69.637 52.6794 54.8263C47.8785 40.0156 35.2592 30.999 24.4933 34.6872C13.7275 38.3754 8.89188 53.3717 13.6927 68.1823C18.4936 82.993 31.1129 92.0096 41.8788 88.3214Z" fill="white" stroke="#DADADA" stroke-width="3.5" stroke-miterlimit="10"/>
<path d="M37.1364 87.2171C45.0456 84.5076 48.8122 74.1512 45.5494 64.0855C42.2866 54.0197 33.2299 48.0563 25.3208 50.7659C17.4116 53.4754 13.645 63.8318 16.9078 73.8975C20.1706 83.9632 29.2273 89.9266 37.1364 87.2171Z" fill="#DADADA"/>
<path d="M79.2404 11.779C79.7395 9.84205 82.9155 5.4969 87.7361 6.73914C92.5062 7.9684 93.6796 11.8494 92.7975 15.2726C91.4251 20.5982 84.7415 18.3595 83.4938 23.2013" stroke="#DADADA" stroke-width="4" stroke-linecap="round"/>
<circle cx="81.5275" cy="30.9565" r="3" transform="rotate(14.4506 81.5275 30.9565)" fill="#DADADA"/>
</svg>
