<svg width="100" height="100" viewBox="0 0 100 100" fill="none" xmlns="http://www.w3.org/2000/svg">
<path d="M59.6264 84.7976C70.8782 83.283 78.4013 69.5067 76.4297 54.0275C74.4581 38.5482 63.7384 27.2277 52.4865 28.7423C41.2347 30.257 33.7116 44.0333 35.6832 59.5125C37.6548 74.9917 48.3745 86.3123 59.6264 84.7976Z" fill="white" stroke="#800025" stroke-width="3.5" stroke-miterlimit="10"/>
<path d="M69.5461 66.1496C67.8457 71.384 63.5322 75.4502 57.5623 75.8625C52.4524 76.2154 48.5931 73.6449 46.0043 69.6363C48.6854 72.1232 52.5381 74.4308 57.696 73.7499C63.5308 72.9795 67.2512 69.2208 69.5461 66.1496Z" stroke="#800025" stroke-width="3.5"/>
<path d="M36.8788 89.3212C47.6447 85.633 52.4802 70.6367 47.6794 55.826C42.8785 41.0154 30.2592 31.9988 19.4933 35.687C8.72745 39.3751 3.89188 54.3714 8.69275 69.1821C13.4936 83.9928 26.1129 93.0094 36.8788 89.3212Z" fill="white" stroke="#800025" stroke-width="3.5" stroke-miterlimit="10"/>
<path d="M32.1364 88.2161C40.0456 85.5066 43.8122 75.1502 40.5494 65.0845C37.2866 55.0187 28.2299 49.0554 20.3208 51.7649C12.4116 54.4744 8.64502 64.8308 11.9078 74.8965C15.1706 84.9623 24.2273 90.9256 32.1364 88.2161Z" fill="#800025"/>
<mask id="path-5-inside-1_3551_40895" fill="white">
<path d="M89.015 10.9011C92.9513 12.5682 94.8327 17.0118 93.2174 20.8258C91.602 24.6399 89.6054 26.31 83.4205 28.0795C77.6818 29.7213 77.6815 29.7214 73.9532 30.5858C73.892 30.5598 73.8447 30.5124 73.8057 30.4481C73.7799 30.4625 73.755 30.4778 73.7292 30.491C71.778 27.2211 71.7769 27.2216 68.9963 21.9716C65.9996 16.3136 65.8188 13.721 67.4341 9.90705C69.0494 6.09301 73.525 4.34189 77.4306 5.99589C79.8127 7.00479 81.4301 9.04803 81.9649 11.3535C84.0031 10.137 86.6136 9.88404 89.015 10.9011Z"/>
</mask>
<path d="M89.015 10.9011C92.9513 12.5682 94.8327 17.0118 93.2174 20.8258C91.602 24.6399 89.6054 26.31 83.4205 28.0795C77.6818 29.7213 77.6815 29.7214 73.9532 30.5858C73.892 30.5598 73.8447 30.5124 73.8057 30.4481C73.7799 30.4625 73.755 30.4778 73.7292 30.491C71.778 27.2211 71.7769 27.2216 68.9963 21.9716C65.9996 16.3136 65.8188 13.721 67.4341 9.90705C69.0494 6.09301 73.525 4.34189 77.4306 5.99589C79.8127 7.00479 81.4301 9.04803 81.9649 11.3535C84.0031 10.137 86.6136 9.88404 89.015 10.9011Z" fill="#800025"/>
<path d="M89.015 10.9011L89.561 9.61194L89.5609 9.61194L89.015 10.9011ZM93.2174 20.8258L94.5065 21.3718L94.5066 21.3718L93.2174 20.8258ZM83.4205 28.0795L83.0354 26.7335V26.7335L83.4205 28.0795ZM73.9532 30.5858L73.4067 31.8748L73.8259 32.0524L74.2693 31.9496L73.9532 30.5858ZM73.8057 30.4481L75.0035 29.7232L74.3041 28.5676L73.1242 29.2251L73.8057 30.4481ZM73.7292 30.491L72.527 31.2084L73.1993 32.3349L74.3671 31.7372L73.7292 30.491ZM68.9963 21.9716L70.2335 21.3163L68.9963 21.9716ZM67.4341 9.90705L66.1449 9.36106L66.1449 9.36107L67.4341 9.90705ZM77.4306 5.99589L77.9766 4.70675L77.9766 4.70673L77.4306 5.99589ZM81.9649 11.3535L80.6011 11.6698L81.0347 13.539L82.6824 12.5556L81.9649 11.3535ZM89.015 10.9011L88.469 12.1902C91.7319 13.5722 93.2259 17.2158 91.9283 20.2799L93.2174 20.8258L94.5066 21.3718C96.4395 16.8078 94.1706 11.5643 89.561 9.61194L89.015 10.9011ZM93.2174 20.8258L91.9283 20.2799C91.1794 22.0479 90.403 23.1835 89.1878 24.103C87.9248 25.0586 86.0825 25.8617 83.0354 26.7335L83.4205 28.0795L83.8055 29.4255C86.9433 28.5278 89.1918 27.6111 90.8773 26.3358C92.6105 25.0244 93.64 23.4179 94.5065 21.3718L93.2174 20.8258ZM83.4205 28.0795L83.0354 26.7335C77.3084 28.3719 77.3332 28.3651 73.637 29.222L73.9532 30.5858L74.2693 31.9496C78.0299 31.0778 78.0552 31.0706 83.8055 29.4255L83.4205 28.0795ZM73.9532 30.5858L74.4996 29.2968C74.7876 29.4189 74.9408 29.6196 75.0035 29.7232L73.8057 30.4481L72.608 31.173C72.7485 31.4051 72.9963 31.7008 73.4067 31.8748L73.9532 30.5858ZM73.8057 30.4481L73.1242 29.2251C73.1095 29.2333 73.0967 29.2407 73.0881 29.2456C73.0839 29.248 73.0797 29.2505 73.077 29.2521C73.0739 29.2538 73.072 29.2549 73.0704 29.2558C73.0672 29.2577 73.0682 29.2571 73.0713 29.2554C73.0745 29.2536 73.0816 29.2497 73.0914 29.2447L73.7292 30.491L74.3671 31.7372C74.4107 31.7149 74.4469 31.6942 74.4645 31.6841C74.4693 31.6814 74.4737 31.6788 74.477 31.6769C74.4806 31.6748 74.4827 31.6736 74.4849 31.6724C74.4891 31.67 74.4891 31.67 74.4872 31.671L73.8057 30.4481ZM73.7292 30.491L74.9315 29.7735C72.997 26.5318 73.0081 26.5551 70.2335 21.3163L68.9963 21.9716L67.7591 22.6268C70.5457 27.8882 70.559 27.9105 72.527 31.2084L73.7292 30.491ZM68.9963 21.9716L70.2335 21.3163C68.7575 18.5295 68.0626 16.6522 67.8759 15.0825C67.6962 13.5711 67.9739 12.2224 68.7232 10.453L67.4341 9.90705L66.1449 9.36107C65.279 11.4056 64.8395 13.2602 65.0955 15.4131C65.3446 17.5077 66.2384 19.7557 67.7591 22.6268L68.9963 21.9716ZM67.4341 9.90705L68.7232 10.453C70.0249 7.37959 73.6621 5.9203 76.8846 7.28505L77.4306 5.99589L77.9766 4.70673C73.388 2.76348 68.0739 4.80644 66.1449 9.36106L67.4341 9.90705ZM77.4306 5.99589L76.8846 7.28504C78.8435 8.11468 80.1649 9.78939 80.6011 11.6698L81.9649 11.3535L83.3287 11.0371C82.6953 8.30667 80.782 5.8949 77.9766 4.70675L77.4306 5.99589ZM81.9649 11.3535L82.6824 12.5556C84.3448 11.5634 86.4865 11.3506 88.469 12.1902L89.015 10.9011L89.5609 9.61194C86.7406 8.41747 83.6613 8.71058 81.2474 10.1513L81.9649 11.3535Z" fill="#800025" mask="url(#path-5-inside-1_3551_40895)"/>
</svg>
