<svg width="24" height="24" viewBox="0 0 24 24" fill="none" xmlns="http://www.w3.org/2000/svg">
<rect width="24" height="24" fill="white"/>
<path d="M16.6615 19.2043C19.8862 18.991 22.2768 15.3891 22.0011 11.1591C21.7253 6.92916 18.8877 3.673 15.663 3.88628C12.4383 4.09956 10.0477 7.70152 10.3235 11.9315C10.5992 16.1614 13.4368 19.4176 16.6615 19.2043Z" fill="white" stroke="#B5B5B5" stroke-width="1.4" stroke-miterlimit="10"/>
<path d="M10.1151 20.0319C13.2416 19.221 14.8911 15.2412 13.7992 11.1429C12.7074 7.04454 9.28767 4.37953 6.16112 5.19043C3.03457 6.00133 1.38512 9.98106 2.47698 14.0794C3.56884 18.1778 6.98853 20.8428 10.1151 20.0319Z" fill="white" stroke="#B5B5B5" stroke-width="1.4" stroke-miterlimit="10"/>
<path d="M9.36948 17.1938C11.235 16.6876 12.1187 14.7905 11.8959 12.9201C11.4257 11.066 11.7511 14.6003 9.14014 15.5C6.52917 16.3997 4.66997 12.8991 5.1402 14.7532C6.01811 16.4185 7.50394 17.7001 9.36948 17.1938Z" fill="#B5B5B5"/>
<path d="M16.4675 16.1597C18.3995 16.0976 19.6971 14.4556 19.9119 12.5842C19.8821 10.6716 19.2156 14.0746 16.4675 14.3477C15.5597 14.4378 14.6464 13.8477 14.1464 13.3477L14.1464 15.1946C14.7337 15.8102 15.5032 16.1907 16.4675 16.1597Z" fill="#B5B5B5"/>
</svg>
