<svg width="24" height="24" viewBox="0 0 24 24" fill="none" xmlns="http://www.w3.org/2000/svg">
<rect width="24" height="24" fill="white"/>
<path d="M16.6615 19.2043C19.8862 18.991 22.2768 15.3891 22.0011 11.1591C21.7253 6.92916 18.8877 3.673 15.663 3.88628C12.4383 4.09956 10.0477 7.70152 10.3235 11.9315C10.5992 16.1614 13.4368 19.4176 16.6615 19.2043Z" fill="white" stroke="#B5B5B5" stroke-width="1.4" stroke-miterlimit="10"/>
<path d="M15.9881 8.82917C16.6559 8.78519 17.3579 9.12774 17.9474 9.86522C18.5352 10.6007 18.962 11.6801 19.0437 12.9314C19.1252 14.1828 18.8422 15.3099 18.3549 16.1166C17.8662 16.9253 17.2146 17.3575 16.5469 17.4018C15.8791 17.446 15.1764 17.1034 14.5867 16.3658C13.9988 15.6302 13.5719 14.5501 13.4904 13.2987C13.4089 12.0474 13.6919 10.9211 14.1792 10.1144C14.6681 9.30545 15.3203 8.87335 15.9881 8.82917Z" fill="#B5B5B5" stroke="#B5B5B5" stroke-width="1.4"/>
<path d="M10.1151 20.0319C13.2416 19.221 14.8911 15.2412 13.7992 11.1429C12.7074 7.04454 9.28767 4.37953 6.16112 5.19043C3.03457 6.00133 1.38512 9.98106 2.47698 14.0794C3.56884 18.1778 6.98853 20.8428 10.1151 20.0319Z" fill="white" stroke="#B5B5B5" stroke-width="1.4" stroke-miterlimit="10"/>
<path d="M5.96256 10.1218C7.76775 9.65382 9.93027 11.0447 10.6073 13.5851C11.2842 16.1258 10.0945 18.3868 8.28927 18.8552C6.48391 19.3235 4.32121 17.9318 3.6443 15.391C2.96766 12.8504 4.15731 10.59 5.96256 10.1218Z" fill="#B5B5B5" stroke="#B5B5B5" stroke-width="1.4"/>
</svg>
