<svg width="24" height="24" viewBox="0 0 24 24" fill="none" xmlns="http://www.w3.org/2000/svg">
<path d="M16.6613 19.2043C19.886 18.991 22.2766 15.3891 22.0008 11.1591C21.7251 6.92916 18.8875 3.673 15.6628 3.88628C12.4381 4.09956 10.0475 7.70152 10.3232 11.9315C10.5989 16.1614 13.4366 19.4176 16.6613 19.2043Z" fill="white" stroke="#B5B5B5" stroke-width="1.4" stroke-miterlimit="10"/>
<path d="M10.1151 20.0319C13.2416 19.221 14.8911 15.2412 13.7992 11.1429C12.7074 7.04454 9.28767 4.37953 6.16112 5.19043C3.03457 6.00133 1.38512 9.98106 2.47698 14.0794C3.56884 18.1778 6.98853 20.8428 10.1151 20.0319Z" fill="white" stroke="#B5B5B5" stroke-width="1.4" stroke-miterlimit="10"/>
<path d="M9.36948 17.1936C11.235 16.6874 12.1187 14.7903 11.8959 12.9199C11.4257 11.0658 11.7511 14.6 9.14014 15.4998C6.52917 16.3995 4.66997 12.8989 5.1402 14.753C6.01811 16.4183 7.50394 17.6998 9.36948 17.1936Z" fill="#B5B5B5"/>
<path d="M16.4679 16.1597C18.3999 16.0976 19.6975 14.4556 19.9122 12.5842C19.8825 10.6716 19.216 14.0746 16.4679 14.3477C15.5601 14.4378 14.6468 13.8477 14.1468 13.3477L14.1468 15.1946C14.7341 15.8102 15.5036 16.1907 16.4679 16.1597Z" fill="#B5B5B5"/>
</svg>
