<svg width="135" height="48" viewBox="0 0 135 48" fill="none" xmlns="http://www.w3.org/2000/svg">
<path d="M22.202 25.8804L30.769 28.4486C30.1944 30.827 29.2883 32.8188 28.0508 34.4094C26.8133 36.0072 25.2811 37.211 23.4469 38.0209C21.6127 38.8307 19.2776 39.2393 16.4415 39.2393C13.0015 39.2393 10.1949 38.7432 8.01451 37.7582C5.83409 36.7733 3.95569 35.0295 2.37194 32.5343C0.788192 30.0391 0 26.8507 0 22.962C0 17.7818 1.39223 13.7982 4.17668 11.0112C6.96113 8.22412 10.9021 6.83789 15.9922 6.83789C19.9774 6.83789 23.108 7.63315 25.3916 9.23097C27.6751 10.8288 29.3694 13.2802 30.4743 16.5853L21.841 18.4896C21.539 17.5338 21.2223 16.8334 20.8908 16.3956C20.3457 15.6587 19.6753 15.0823 18.8871 14.6884C18.0989 14.2871 17.2076 14.0901 16.2353 14.0901C14.018 14.0901 12.3238 14.9729 11.1452 16.7385C10.2539 18.0445 9.80452 20.102 9.80452 22.9109C9.80452 26.3838 10.3349 28.7623 11.403 30.0537C12.4711 31.3378 13.9665 31.9871 15.8891 31.9871C17.8117 31.9871 19.1744 31.4691 20.132 30.4258C21.0897 29.3897 21.7821 27.8722 22.2167 25.895L22.202 25.8804Z" fill="#800025"/>
<path d="M31.5483 7.37012H40.3289V18.9123C41.5222 17.6866 42.7082 16.8111 43.8868 16.2858C45.0654 15.7605 46.465 15.4978 48.0708 15.4978C50.4575 15.4978 52.3433 16.2201 53.7134 17.6574C55.0835 19.0947 55.7759 21.3054 55.7759 24.2822V38.7136H46.9511V26.2302C46.9511 24.8075 46.686 23.8006 46.1556 23.2024C45.6252 22.6114 44.8739 22.3123 43.9089 22.3123C42.8408 22.3123 41.9789 22.7135 41.3159 23.5088C40.653 24.3041 40.3215 25.7414 40.3215 27.8061V38.7063H31.5409V7.37012H31.5483Z" fill="#800025"/>
<path d="M85.4055 16.0874H106.665V21.1727L95.0995 32.8462H107.379V38.7852H84.5437V33.1454L95.5342 22.0336H85.4129L85.4055 16.0874Z" fill="#800025"/>
<path d="M107.14 16.0947H116.407L121.136 31.2046L125.526 16.0947H134.182L125.092 40.3465C124.053 43.1117 123 44.9794 121.924 45.9498C120.399 47.3214 118.079 48 114.956 48C113.689 48 111.737 47.8322 109.085 47.4893L108.392 41.419C109.659 41.8203 111.066 42.0173 112.621 42.0173C113.652 42.0173 114.492 41.7838 115.133 41.3096C115.773 40.8353 116.311 39.9963 116.761 38.7852L107.14 16.0874V16.0947Z" fill="#800025"/>
<path d="M74.3081 19.5169C78.1846 19.0141 80.7765 14.4414 80.0973 9.30336C79.418 4.16534 75.7248 0.407723 71.8483 0.91048C67.9717 1.41324 65.3798 5.98599 66.0591 11.124C66.7384 16.262 70.4316 20.0196 74.3081 19.5169Z" fill="white"/>
<path d="M74.5247 17.7948C76.8321 17.4956 78.3442 14.542 77.902 11.1979C77.4599 7.85382 75.2311 5.38548 72.9237 5.68473C70.6163 5.98397 69.1042 8.93749 69.5464 12.2816C69.9885 15.6257 72.2173 18.094 74.5247 17.7948Z" fill="#800025"/>
<path d="M66.4707 21.0188C70.1798 19.7945 71.8458 14.8168 70.1918 9.90074C68.5378 4.98464 64.1901 1.99177 60.481 3.21598C56.7719 4.4402 55.106 9.4179 56.76 14.334C58.414 19.2501 62.7616 22.243 66.4707 21.0188Z" fill="white"/>
<path d="M64.8335 20.1519C67.5584 19.2526 68.8561 15.815 67.732 12.4739C66.6078 9.13275 63.4876 7.15333 60.7627 8.0527C58.0378 8.95207 56.7401 12.3897 57.8642 15.7308C58.9884 19.0719 62.1086 21.0513 64.8335 20.1519Z" fill="#800025"/>
<path d="M57.4357 28.3357C57.4357 24.8701 58.6143 22.0174 60.9715 19.7775C63.3287 17.5303 66.5183 16.4141 70.5329 16.4141C75.1221 16.4141 78.5917 17.7346 80.9341 20.3685C82.8199 22.4916 83.7628 25.1036 83.7628 28.2116C83.7628 31.7064 82.5916 34.5664 80.2564 36.7917C77.9213 39.0243 74.6875 40.1333 70.555 40.1333C66.8719 40.1333 63.8959 39.2067 61.6197 37.3535C58.8279 35.0626 57.4357 32.0493 57.4357 28.3357ZM66.2384 28.3138C66.2384 30.3348 66.6509 31.8304 67.4759 32.8008C68.301 33.7712 69.3396 34.2527 70.5919 34.2527C71.8441 34.2527 72.8975 33.7785 73.7078 32.8227C74.5181 31.8669 74.9306 30.3348 74.9306 28.2262C74.9306 26.2563 74.5181 24.7971 73.7004 23.8341C72.8828 22.871 71.8662 22.3895 70.6582 22.3895C69.3764 22.3895 68.3231 22.8783 67.4833 23.8559C66.6509 24.8336 66.231 26.3147 66.231 28.3138H66.2384Z" fill="#800025"/>
</svg>
