<svg width="159" height="56" viewBox="0 0 159 56" fill="none" xmlns="http://www.w3.org/2000/svg">
<path d="M26.2468 30.1938L36.3746 33.19C35.6953 35.9649 34.6242 38.2886 33.1612 40.1442C31.6982 42.0084 29.8869 43.4128 27.7185 44.3577C25.5501 45.3025 22.7896 45.7792 19.4369 45.7792C15.3701 45.7792 12.0523 45.2004 9.47463 44.0512C6.89697 42.9021 4.67636 40.8678 2.80407 37.9567C0.931788 35.0456 0 31.3259 0 26.789C0 20.7455 1.64587 16.098 4.9376 12.8464C8.22934 9.59481 12.8883 7.97754 18.9057 7.97754C23.6169 7.97754 27.3179 8.90534 30.0175 10.7695C32.7171 12.6336 34.72 15.4936 36.0262 19.3495L25.8201 21.5711C25.4631 20.4561 25.0886 19.6389 24.6967 19.1282C24.0523 18.2685 23.2599 17.5961 22.3281 17.1364C21.3963 16.6683 20.3426 16.4384 19.1931 16.4384C16.5719 16.4384 14.569 17.4684 13.1757 19.5283C12.1219 21.0519 11.5907 23.4523 11.5907 26.7294C11.5907 30.7811 12.2177 33.556 13.4804 35.0626C14.7431 36.5607 16.5109 37.3183 18.7838 37.3183C21.0567 37.3183 22.6677 36.7139 23.7998 35.4967C24.9319 34.288 25.7504 32.5175 26.2642 30.2108L26.2468 30.1938Z" fill="#800025"/>
<path d="M37.2958 8.59875H47.6761V22.0647C49.0868 20.6347 50.4889 19.6132 51.8822 19.0004C53.2755 18.3875 54.9301 18.0811 56.8285 18.0811C59.65 18.0811 61.8793 18.9238 63.4991 20.6006C65.1188 22.2775 65.9374 24.8566 65.9374 28.3295V45.1661H55.5049V30.6022C55.5049 28.9423 55.1914 27.7677 54.5644 27.0697C53.9374 26.3802 53.0491 26.0313 51.9083 26.0313C50.6456 26.0313 49.6268 26.4994 48.843 27.4272C48.0593 28.355 47.6674 30.0319 47.6674 32.4408V45.1576H37.2871V8.59875H37.2958Z" fill="#800025"/>
<path d="M100.965 18.7687H126.097V24.7015L112.425 38.3207H126.942V45.2494H99.9461V38.6696L112.939 25.7059H100.974L100.965 18.7687Z" fill="#800025"/>
<path d="M126.659 18.7772H137.614L143.205 36.4055L148.395 18.7772H158.628L147.882 47.071C146.654 50.297 145.408 52.4761 144.137 53.6081C142.334 55.2084 139.591 56 135.899 56C134.401 56 132.093 55.8042 128.958 55.4042L128.14 48.3222C129.638 48.7904 131.301 49.0202 133.138 49.0202C134.358 49.0202 135.35 48.7478 136.108 48.1945C136.866 47.6413 137.501 46.6624 138.032 45.2494L126.659 18.7687V18.7772Z" fill="#800025"/>
<path d="M87.8458 22.7694C92.4286 22.1829 95.4927 16.848 94.6897 10.8537C93.8867 4.85932 89.5206 0.475433 84.9379 1.06198C80.3551 1.64853 77.291 6.9834 78.094 12.9778C78.897 18.9721 83.2631 23.356 87.8458 22.7694Z" fill="white"/>
<path d="M88.1019 20.7606C90.8297 20.4114 92.6172 16.9657 92.0946 13.0642C91.5719 9.16275 88.937 6.28302 86.2092 6.63214C83.4815 6.98126 81.694 10.427 82.2166 14.3285C82.7393 18.2299 85.3742 21.1097 88.1019 20.7606Z" fill="#800025"/>
<path d="M78.5807 24.5216C82.9655 23.0934 84.935 17.286 82.9797 11.5506C81.0243 5.81513 75.8846 2.32345 71.4998 3.7517C67.1149 5.17994 65.1454 10.9873 67.1008 16.7227C69.0561 22.4582 74.1959 25.9498 78.5807 24.5216Z" fill="white"/>
<path d="M76.6451 23.5104C79.8665 22.4611 81.4006 18.4506 80.0717 14.5526C78.7427 10.6546 75.0541 8.34531 71.8327 9.39457C68.6114 10.4438 67.0773 14.4544 68.4062 18.3523C69.7351 22.2503 73.4238 24.5596 76.6451 23.5104Z" fill="#800025"/>
<path d="M67.8995 33.0585C67.8995 29.0153 69.2929 25.6871 72.0795 23.0739C74.8662 20.4522 78.6369 19.1499 83.3829 19.1499C88.8082 19.1499 92.9098 20.6906 95.679 23.7634C97.9083 26.2404 99.023 29.2877 99.023 32.9137C99.023 36.991 97.6384 40.3277 94.8778 42.9238C92.1173 45.5285 88.2944 46.8223 83.409 46.8223C79.0549 46.8223 75.5367 45.7413 72.8458 43.5792C69.5454 40.9065 67.8995 37.391 67.8995 33.0585ZM78.306 33.0329C78.306 35.3907 78.7936 37.1357 79.7689 38.2678C80.7443 39.3999 81.9721 39.9617 83.4526 39.9617C84.933 39.9617 86.1783 39.4084 87.1362 38.2933C88.0941 37.1782 88.5817 35.3907 88.5817 32.9308C88.5817 30.6325 88.0941 28.9301 87.1275 27.8066C86.1608 26.683 84.9591 26.1212 83.5309 26.1212C82.0157 26.1212 80.7704 26.6915 79.7777 27.8321C78.7936 28.9727 78.2972 30.7006 78.2972 33.0329H78.306Z" fill="#800025"/>
</svg>
