<svg width="390" height="364" viewBox="0 0 390 364" fill="none" xmlns="http://www.w3.org/2000/svg">
<rect y="159" width="390" height="64" fill="#F9F9F9"/>
<path d="M75.7203 231.099C84.1591 229.963 89.8015 219.631 88.3228 208.021C86.8441 196.412 78.8043 187.921 70.3654 189.057C61.9265 190.193 56.2842 200.526 57.7629 212.135C59.2416 223.744 67.2814 232.235 75.7203 231.099Z" fill="white" stroke="#800025" stroke-width="2.8" stroke-miterlimit="10"/>
<path d="M82.8999 217.595C81.5279 221.244 78.4073 224.017 74.1674 224.31C70.6316 224.554 67.8973 222.913 65.9798 220.267C67.9691 221.949 70.7113 223.371 74.2822 222.899C78.422 222.353 81.1517 219.817 82.8999 217.595Z" stroke="#800025" stroke-width="2.8"/>
<path d="M58.6591 234.492C66.7335 231.725 70.3602 220.478 66.7595 209.37C63.1589 198.262 53.6944 191.5 45.62 194.266C37.5456 197.032 33.9189 208.279 37.5196 219.387C41.1202 230.495 50.5847 237.258 58.6591 234.492Z" fill="white" stroke="#800025" stroke-width="2.8" stroke-miterlimit="10"/>
<path d="M55.1023 233.662C61.0342 231.63 63.8592 223.863 61.4121 216.314C58.965 208.764 52.1725 204.292 46.2406 206.324C40.3087 208.356 37.4838 216.123 39.9309 223.673C42.378 231.222 49.1705 235.694 55.1023 233.662Z" fill="#800025"/>
<g clip-path="url(#clip0_3640_44914)">
<g filter="url(#filter0_d_3640_44914)">
<path d="M149.833 157C149.833 139.972 136.029 126.167 119 126.167H117.427C101.267 126.167 88.1668 139.267 88.1668 155.427C88.1668 160.932 89.7196 166.325 92.6469 170.987L96.1097 176.502C96.8745 177.72 96.6956 179.305 95.6787 180.322L88.1668 187.834H119C136.029 187.834 149.833 174.029 149.833 157Z" fill="white"/>
</g>
</g>
<mask id="path-7-inside-1_3640_44914" fill="white">
<path d="M125.26 145C129.535 145.001 133 148.358 133 152.5C133 156.643 131.813 158.959 126.808 163C122.164 166.75 122.163 166.751 119.067 169C119.001 169 118.939 168.975 118.878 168.931C118.86 168.954 118.843 168.978 118.824 169C115.752 166.751 115.751 166.751 111.144 163.001C106.178 158.96 105 156.643 105 152.501C105 148.359 108.438 145.002 112.68 145.001C115.267 145.001 117.553 146.252 118.944 148.167C120.347 146.251 122.652 145 125.26 145Z"/>
</mask>
<path d="M125.26 145L125.26 142.2H125.26V145ZM133 152.5H135.8V152.5L133 152.5ZM126.808 163L125.049 160.822V160.822L126.808 163ZM119.067 169L119.066 171.8L119.977 171.801L120.713 171.266L119.067 169ZM118.878 168.931L120.518 166.662L118.329 165.079L116.669 167.211L118.878 168.931ZM118.824 169L117.17 171.259L119.286 172.81L120.971 170.798L118.824 169ZM111.144 163.001L112.911 160.83L111.144 163.001ZM105 152.501H102.2V152.501L105 152.501ZM112.68 145.001V142.201H112.68L112.68 145.001ZM118.944 148.167L116.679 149.813L118.936 152.917L121.203 149.821L118.944 148.167ZM125.26 145L125.26 147.8C128.072 147.801 130.2 149.987 130.2 152.501L133 152.5L135.8 152.5C135.8 146.73 130.997 142.201 125.26 142.2L125.26 145ZM133 152.5H130.2C130.2 154.27 129.953 155.352 129.354 156.391C128.696 157.534 127.478 158.861 125.049 160.822L126.808 163L128.567 165.179C131.143 163.099 133.02 161.247 134.207 159.185C135.454 157.02 135.8 154.873 135.8 152.5H133ZM126.808 163L125.049 160.822C120.423 164.557 120.464 164.524 117.421 166.735L119.067 169L120.713 171.266C123.863 168.977 123.904 168.944 128.567 165.179L126.808 163ZM119.067 169L119.068 166.2C119.76 166.201 120.261 166.476 120.518 166.662L118.878 168.931L117.238 171.2C117.616 171.474 118.241 171.8 119.066 171.8L119.067 169ZM118.878 168.931L116.669 167.211C116.661 167.221 116.653 167.231 116.647 167.239C116.641 167.247 116.636 167.254 116.632 167.259C116.628 167.264 116.625 167.269 116.623 167.271C116.621 167.273 116.62 167.274 116.621 167.274C116.621 167.274 116.622 167.272 116.624 167.269C116.627 167.266 116.63 167.261 116.635 167.255C116.644 167.244 116.659 167.225 116.677 167.203L118.824 169L120.971 170.798C121.025 170.734 121.066 170.679 121.082 170.659C121.086 170.653 121.09 170.647 121.093 170.644C121.096 170.641 121.096 170.64 121.097 170.639C121.098 170.637 121.094 170.643 121.087 170.652L118.878 168.931ZM118.824 169L120.479 166.742C117.459 164.53 117.499 164.564 112.911 160.83L111.144 163.001L109.376 165.173C114.004 168.939 114.045 168.971 117.17 171.259L118.824 169ZM111.144 163.001L112.911 160.83C110.502 158.869 109.294 157.544 108.641 156.4C108.046 155.359 107.8 154.274 107.8 152.501L105 152.501L102.2 152.501C102.2 154.871 102.543 157.015 103.778 159.178C104.956 161.239 106.819 163.092 109.376 165.173L111.144 163.001ZM105 152.501H107.8C107.8 149.968 109.922 147.802 112.68 147.801L112.68 145.001L112.68 142.201C106.955 142.202 102.2 146.751 102.2 152.501H105ZM112.68 145.001V147.801C114.347 147.801 115.801 148.604 116.679 149.813L118.944 148.167L121.209 146.52C119.305 143.9 116.186 142.201 112.68 142.201V145.001ZM118.944 148.167L121.203 149.821C122.089 148.612 123.562 147.8 125.26 147.8V145V142.2C121.742 142.2 118.605 143.891 116.685 146.512L118.944 148.167Z" fill="#800025" mask="url(#path-7-inside-1_3640_44914)"/>
<path d="M180.72 231.099C189.159 229.963 194.801 219.631 193.323 208.021C191.844 196.412 183.804 187.921 175.365 189.057C166.927 190.193 161.284 200.526 162.763 212.135C164.242 223.744 172.281 232.235 180.72 231.099Z" fill="white" stroke="#800025" stroke-width="2.8" stroke-miterlimit="10"/>
<path d="M181.198 228.337C186.221 227.661 189.513 220.988 188.55 213.432C187.588 205.876 182.736 200.298 177.713 200.974C172.69 201.651 169.398 208.324 170.361 215.88C171.323 223.436 176.175 229.014 181.198 228.337Z" fill="#800025"/>
<path d="M163.659 234.492C171.734 231.725 175.36 220.478 171.76 209.37C168.159 198.262 158.694 191.5 150.62 194.266C142.546 197.032 138.919 208.279 142.52 219.387C146.12 230.495 155.585 237.258 163.659 234.492Z" fill="white" stroke="#800025" stroke-width="2.8" stroke-miterlimit="10"/>
<path d="M160.102 233.662C166.034 231.63 168.859 223.863 166.412 216.314C163.965 208.764 157.172 204.292 151.241 206.324C145.309 208.356 142.484 216.123 144.931 223.673C147.378 231.222 154.17 235.694 160.102 233.662Z" fill="#800025"/>
<g clip-path="url(#clip1_3640_44914)">
<g filter="url(#filter1_d_3640_44914)">
<path d="M254.833 157C254.833 139.972 241.029 126.167 224 126.167H222.427C206.267 126.167 193.167 139.267 193.167 155.427C193.167 160.932 194.72 166.325 197.647 170.987L201.11 176.502C201.874 177.72 201.696 179.305 200.679 180.322L193.167 187.834H224C241.029 187.834 254.833 174.029 254.833 157Z" fill="white"/>
</g>
</g>
<path d="M217 150.001C217 148.001 218.991 143 223.969 143C228.895 143 231 146.466 231 150.001C231 155.5 223.969 155 223.969 160" stroke="#D29419" stroke-width="3.6" stroke-linecap="round"/>
<circle cx="224" cy="167" r="2" fill="#D29419"/>
<path d="M285.72 231.098C277.281 232.234 269.242 223.744 267.763 212.134C267.307 208.558 267.528 205.103 268.297 202C270.026 195.032 274.526 189.843 280.365 189.057C288.804 187.921 296.844 196.411 298.323 208.021C298.418 208.77 298.484 209.514 298.521 210.25C299.062 220.925 293.615 230.036 285.72 231.098Z" fill="white"/>
<path d="M268.297 202C267.528 205.103 267.307 208.558 267.763 212.134C269.242 223.744 277.281 232.234 285.72 231.098C293.615 230.036 299.062 220.925 298.521 210.25M268.297 202C270.026 195.032 274.526 189.843 280.365 189.057C288.804 187.921 296.844 196.411 298.323 208.021C298.418 208.77 298.484 209.514 298.521 210.25M268.297 202C273.421 208 286.638 218.05 298.521 210.25" stroke="#800025" stroke-width="2.8" stroke-miterlimit="10"/>
<path d="M286.199 228.337C291.222 227.661 294.513 220.988 293.551 213.432C292.588 205.876 287.736 200.298 282.713 200.974C277.691 201.651 274.399 208.324 275.361 215.88C276.324 223.436 281.176 229.013 286.199 228.337Z" fill="#800025"/>
<path d="M298.323 208.021C296.844 196.411 288.804 187.921 280.365 189.057C274.526 189.843 270.026 195.032 268.297 202C273.421 208 286.638 218.05 298.521 210.25C298.484 209.514 298.418 208.77 298.323 208.021Z" fill="white" stroke="#800025" stroke-width="2.8" stroke-miterlimit="10"/>
<path d="M276.759 209.37C280.36 220.478 276.733 231.725 268.659 234.492C261.503 236.943 253.255 231.91 248.965 223C248.414 221.857 247.929 220.65 247.52 219.387C243.919 208.279 247.546 197.032 255.62 194.266C261.926 192.106 269.079 195.757 273.625 202.75C274.901 204.712 275.971 206.937 276.759 209.37Z" fill="white"/>
<path d="M273.625 202.75C269.079 195.757 261.926 192.106 255.62 194.266C247.546 197.032 243.919 208.279 247.52 219.387C247.929 220.65 248.414 221.857 248.965 223M273.625 202.75C274.901 204.712 275.971 206.937 276.759 209.37C280.36 220.478 276.733 231.725 268.659 234.492C261.503 236.943 253.255 231.91 248.965 223M273.625 202.75C272.81 209.125 266.736 222.1 248.965 223" stroke="#800025" stroke-width="2.8" stroke-miterlimit="10"/>
<path d="M265.102 233.662C271.034 231.63 273.859 223.863 271.412 216.314C268.965 208.764 262.172 204.292 256.241 206.324C250.309 208.356 247.484 216.123 249.931 223.673C252.378 231.222 259.17 235.694 265.102 233.662Z" fill="#800025"/>
<path d="M255.62 194.266C247.546 197.032 243.919 208.279 247.52 219.387C247.929 220.65 248.414 221.857 248.965 223C266.736 222.1 272.81 209.125 273.625 202.75C269.079 195.757 261.926 192.106 255.62 194.266Z" fill="white" stroke="#800025" stroke-width="2.8" stroke-miterlimit="10"/>
<g clip-path="url(#clip2_3640_44914)">
<g filter="url(#filter2_d_3640_44914)">
<path d="M359.833 157C359.833 139.971 346.029 126.167 329 126.167H327.427C311.267 126.167 298.167 139.267 298.167 155.427C298.167 160.932 299.72 166.325 302.647 170.987L306.11 176.501C306.874 177.719 306.696 179.304 305.679 180.321L298.167 187.833H329C346.029 187.833 359.833 174.029 359.833 157Z" fill="white"/>
</g>
</g>
<path d="M324.266 155.726C325.53 153.069 327.001 151.073 328.272 146.714C328.329 146.518 328.615 146.518 328.671 146.715C329.919 151.079 331.175 153.13 332.679 155.726C339.117 166.842 330.313 168 328.472 168C326.632 168 317.956 166.842 324.266 155.726Z" stroke="#84A8E2" stroke-width="2.8" stroke-linecap="round"/>
<g opacity="0.2">
<mask id="path-26-inside-2_3640_44914" fill="white">
<path d="M75.2598 6C79.5346 6.00003 83 9.35798 83 13.5C83 17.6421 81.8128 19.9586 76.8076 24C72.1636 27.7498 72.1635 27.7501 69.0674 30C69.0009 30 68.9388 29.9747 68.8779 29.9307C68.8598 29.954 68.8428 29.9778 68.8242 30C65.7523 27.75 65.7515 27.7509 61.1436 24.001C56.1776 19.9597 55 17.6429 55 13.501C55 9.35898 58.4383 6.00108 62.6797 6.00098C65.2667 6.00098 67.5528 7.25168 68.9443 9.16602C70.3467 7.251 72.6519 6 75.2598 6Z"/>
</mask>
<path d="M75.2598 6L75.2598 3.2H75.2598V6ZM83 13.5H85.8V13.5L83 13.5ZM76.8076 24L75.0486 21.8215V21.8215L76.8076 24ZM69.0674 30L69.0664 32.8L69.9769 32.8003L70.7134 32.2651L69.0674 30ZM68.8779 29.9307L70.5183 27.6615L68.329 26.0789L66.669 28.21L68.8779 29.9307ZM68.8242 30L67.1697 32.2589L69.2865 33.8093L70.971 31.7976L68.8242 30ZM61.1436 24.001L62.9109 21.8292L61.1436 24.001ZM55 13.501H52.2V13.501L55 13.501ZM62.6797 6.00098V3.20098H62.6796L62.6797 6.00098ZM68.9443 9.16602L66.6795 10.8123L68.9359 13.9166L71.2034 10.8203L68.9443 9.16602ZM75.2598 6L75.2597 8.8C78.072 8.80002 80.2 10.9869 80.2 13.5L83 13.5L85.8 13.5C85.8 7.72905 80.9971 3.20004 75.2598 3.2L75.2598 6ZM83 13.5H80.2C80.2 15.2691 79.9525 16.3515 79.3542 17.3906C78.6961 18.5336 77.4778 19.86 75.0486 21.8215L76.8076 24L78.5666 26.1785C81.1425 24.0986 83.0204 22.2461 84.2072 20.1849C85.4538 18.0199 85.8 15.8729 85.8 13.5H83ZM76.8076 24L75.0486 21.8215C70.4235 25.556 70.464 25.5238 67.4213 27.7349L69.0674 30L70.7134 32.2651C73.8629 29.9763 73.9037 29.9436 78.5666 26.1785L76.8076 24ZM69.0674 30L69.0683 27.2C69.7604 27.2002 70.2612 27.4756 70.5183 27.6615L68.8779 29.9307L67.2376 32.1999C67.6165 32.4738 68.2414 32.7997 69.0664 32.8L69.0674 30ZM68.8779 29.9307L66.669 28.21C66.6607 28.2207 66.6533 28.2303 66.6472 28.2383C66.6411 28.2462 66.6358 28.2532 66.6319 28.2584C66.6283 28.2632 66.6246 28.2681 66.623 28.2701C66.6209 28.2729 66.6205 28.2735 66.6205 28.2734C66.6207 28.2732 66.6221 28.2713 66.6245 28.2683C66.6268 28.2652 66.6305 28.2605 66.6351 28.2546C66.6442 28.243 66.6587 28.2248 66.6775 28.2024L68.8242 30L70.971 31.7976C71.0246 31.7335 71.0662 31.6788 71.0819 31.6581C71.0864 31.6522 71.0904 31.6469 71.0927 31.6439C71.0956 31.6401 71.0963 31.6391 71.0971 31.6381C71.0984 31.6363 71.094 31.6422 71.0869 31.6513L68.8779 29.9307ZM68.8242 30L70.4787 27.7411C67.4595 25.5298 67.499 25.5631 62.9109 21.8292L61.1436 24.001L59.3762 26.1727C64.0039 29.9388 64.045 29.9703 67.1697 32.2589L68.8242 30ZM61.1436 24.001L62.9109 21.8292C60.5019 19.8688 59.2938 18.5431 58.6409 17.3999C58.0461 16.3588 57.8 15.2731 57.8 13.5009L55 13.501L52.2 13.501C52.2 15.8708 52.5427 18.0144 53.7782 20.1775C54.9555 22.2385 56.8192 24.0918 59.3762 26.1727L61.1436 24.001ZM55 13.501H57.8C57.8 10.9675 59.9218 8.80104 62.6798 8.80098L62.6797 6.00098L62.6796 3.20098C56.9548 3.20111 52.2 7.75044 52.2 13.501H55ZM62.6797 6.00098V8.80098C64.3474 8.80098 65.801 9.60383 66.6795 10.8123L68.9443 9.16602L71.2092 7.51968C69.3046 4.89953 66.186 3.20098 62.6797 3.20098V6.00098ZM68.9443 9.16602L71.2034 10.8203C72.0887 9.61138 73.5617 8.8 75.2598 8.8V6V3.2C71.742 3.2 68.6048 4.89061 66.6853 7.5117L68.9443 9.16602Z" fill="#800025" mask="url(#path-26-inside-2_3640_44914)"/>
</g>
<g opacity="0.2">
<mask id="path-28-inside-3_3640_44914" fill="white">
<path d="M323.26 292C327.535 292 331 295.358 331 299.5C331 303.642 329.813 305.959 324.808 310C320.164 313.75 320.163 313.75 317.067 316C317.001 316 316.939 315.975 316.878 315.931C316.86 315.954 316.843 315.978 316.824 316C313.752 313.75 313.751 313.751 309.144 310.001C304.178 305.96 303 303.643 303 299.501C303 295.359 306.438 292.001 310.68 292.001C313.267 292.001 315.553 293.252 316.944 295.166C318.347 293.251 320.652 292 323.26 292Z"/>
</mask>
<path d="M323.26 292L323.26 289.2H323.26V292ZM331 299.5H333.8V299.5L331 299.5ZM324.808 310L323.049 307.822V307.822L324.808 310ZM317.067 316L317.066 318.8L317.977 318.8L318.713 318.265L317.067 316ZM316.878 315.931L318.518 313.661L316.329 312.079L314.669 314.21L316.878 315.931ZM316.824 316L315.17 318.259L317.286 319.809L318.971 317.798L316.824 316ZM309.144 310.001L310.911 307.829L309.144 310.001ZM303 299.501H300.2V299.501L303 299.501ZM310.68 292.001V289.201H310.68L310.68 292.001ZM316.944 295.166L314.679 296.812L316.936 299.917L319.203 296.82L316.944 295.166ZM323.26 292L323.26 294.8C326.072 294.8 328.2 296.987 328.2 299.5L331 299.5L333.8 299.5C333.8 293.729 328.997 289.2 323.26 289.2L323.26 292ZM331 299.5H328.2C328.2 301.269 327.953 302.351 327.354 303.391C326.696 304.534 325.478 305.86 323.049 307.822L324.808 310L326.567 312.178C329.143 310.099 331.02 308.246 332.207 306.185C333.454 304.02 333.8 301.873 333.8 299.5H331ZM324.808 310L323.049 307.822C318.423 311.556 318.464 311.524 315.421 313.735L317.067 316L318.713 318.265C321.863 315.976 321.904 315.944 326.567 312.178L324.808 310ZM317.067 316L317.068 313.2C317.76 313.2 318.261 313.476 318.518 313.661L316.878 315.931L315.238 318.2C315.616 318.474 316.241 318.8 317.066 318.8L317.067 316ZM316.878 315.931L314.669 314.21C314.661 314.221 314.653 314.23 314.647 314.238C314.641 314.246 314.636 314.253 314.632 314.258C314.628 314.263 314.625 314.268 314.623 314.27C314.621 314.273 314.62 314.273 314.621 314.273C314.621 314.273 314.622 314.271 314.624 314.268C314.627 314.265 314.63 314.26 314.635 314.255C314.644 314.243 314.659 314.225 314.677 314.202L316.824 316L318.971 317.798C319.025 317.734 319.066 317.679 319.082 317.658C319.086 317.652 319.09 317.647 319.093 317.644C319.096 317.64 319.096 317.639 319.097 317.638C319.098 317.636 319.094 317.642 319.087 317.651L316.878 315.931ZM316.824 316L318.479 313.741C315.459 311.53 315.499 311.563 310.911 307.829L309.144 310.001L307.376 312.173C312.004 315.939 312.045 315.97 315.17 318.259L316.824 316ZM309.144 310.001L310.911 307.829C308.502 305.869 307.294 304.543 306.641 303.4C306.046 302.359 305.8 301.273 305.8 299.501L303 299.501L300.2 299.501C300.2 301.871 300.543 304.014 301.778 306.177C302.956 308.239 304.819 310.092 307.376 312.173L309.144 310.001ZM303 299.501H305.8C305.8 296.968 307.922 294.801 310.68 294.801L310.68 292.001L310.68 289.201C304.955 289.201 300.2 293.75 300.2 299.501H303ZM310.68 292.001V294.801C312.347 294.801 313.801 295.604 314.679 296.812L316.944 295.166L319.209 293.52C317.305 290.9 314.186 289.201 310.68 289.201V292.001ZM316.944 295.166L319.203 296.82C320.089 295.611 321.562 294.8 323.26 294.8V292V289.2C319.742 289.2 316.605 290.891 314.685 293.512L316.944 295.166Z" fill="#800025" mask="url(#path-28-inside-3_3640_44914)"/>
</g>
<g opacity="0.2">
<path d="M324 60.0005C324 58.0002 325.991 53 330.969 53C335.895 53 338 56.4654 338 60.0005C338 65.5 330.969 65 330.969 70" stroke="#D29419" stroke-width="3.6" stroke-linecap="round"/>
<circle cx="331" cy="76.9995" r="2" fill="#D29419"/>
</g>
<g opacity="0.2">
<path d="M129 287C129 285 130.991 280 135.969 280C140.895 280 143 283.465 143 287C143 292.5 135.969 292 135.969 297" stroke="#D29419" stroke-width="3.6" stroke-linecap="round"/>
<circle cx="136" cy="304" r="2" fill="#D29419"/>
</g>
<path opacity="0.2" d="M138.266 66.7263C139.53 64.0692 141.001 62.0731 142.272 57.714C142.329 57.518 142.615 57.5183 142.671 57.7146C143.919 62.0792 145.175 64.1296 146.679 66.7263C153.117 77.8421 144.313 79 142.472 79C140.632 79 131.956 77.8421 138.266 66.7263Z" stroke="#84A8E2" stroke-width="2.8" stroke-linecap="round"/>
<path opacity="0.2" d="M223.266 344.726C224.53 342.069 226.001 340.073 227.272 335.714C227.329 335.518 227.615 335.518 227.671 335.715C228.919 340.079 230.175 342.13 231.679 344.726C238.117 355.842 229.313 357 227.472 357C225.632 357 216.956 355.842 223.266 344.726Z" stroke="#84A8E2" stroke-width="2.8" stroke-linecap="round"/>
<g opacity="0.2">
<path d="M229.24 3.35449C229.912 2.43266 231.145 2.12037 232.175 2.61133C234.219 3.58617 234.879 6.17527 233.551 8.00977L231.176 11.292C230.854 11.7372 230.821 12.3294 231.094 12.8066C231.367 13.284 231.894 13.5575 232.441 13.5059L232.638 13.4873C236.64 13.1095 240.099 16.2581 240.1 20.2783C240.1 24.0456 237.046 27.0996 233.278 27.0996H223.5C222.616 27.0996 221.9 26.3837 221.9 25.5V13.4258L229.24 3.35449Z" stroke="#800025" stroke-width="2.8" stroke-linecap="round" stroke-linejoin="round"/>
<path d="M222.581 26.7353H216V12.6177H221.758" stroke="#800025" stroke-width="2.8"/>
</g>
<g opacity="0.2">
<path d="M59.2402 331.354C59.912 330.433 61.1452 330.12 62.1748 330.611C64.219 331.586 64.8789 334.175 63.5508 336.01L61.1758 339.292C60.8536 339.737 60.8213 340.329 61.0938 340.807C61.3665 341.284 61.894 341.558 62.4414 341.506L62.6377 341.487C66.6402 341.11 70.0993 344.258 70.0996 348.278C70.0996 352.046 67.0456 355.1 63.2783 355.1H53.5C52.6163 355.1 51.9004 354.384 51.9004 353.5V341.426L59.2402 331.354Z" stroke="#800025" stroke-width="2.8" stroke-linecap="round" stroke-linejoin="round"/>
<path d="M52.5806 354.735H46V340.618H51.7581" stroke="#800025" stroke-width="2.8"/>
</g>
<defs>
<filter id="filter0_d_3640_44914" x="79.417" y="119.167" width="79.1665" height="79.1665" filterUnits="userSpaceOnUse" color-interpolation-filters="sRGB">
<feFlood flood-opacity="0" result="BackgroundImageFix"/>
<feColorMatrix in="SourceAlpha" type="matrix" values="0 0 0 0 0 0 0 0 0 0 0 0 0 0 0 0 0 0 127 0" result="hardAlpha"/>
<feOffset dy="1.75"/>
<feGaussianBlur stdDeviation="4.375"/>
<feComposite in2="hardAlpha" operator="out"/>
<feColorMatrix type="matrix" values="0 0 0 0 0 0 0 0 0 0 0 0 0 0 0 0 0 0 0.08 0"/>
<feBlend mode="normal" in2="BackgroundImageFix" result="effect1_dropShadow_3640_44914"/>
<feBlend mode="normal" in="SourceGraphic" in2="effect1_dropShadow_3640_44914" result="shape"/>
</filter>
<filter id="filter1_d_3640_44914" x="184.417" y="119.167" width="79.1665" height="79.1665" filterUnits="userSpaceOnUse" color-interpolation-filters="sRGB">
<feFlood flood-opacity="0" result="BackgroundImageFix"/>
<feColorMatrix in="SourceAlpha" type="matrix" values="0 0 0 0 0 0 0 0 0 0 0 0 0 0 0 0 0 0 127 0" result="hardAlpha"/>
<feOffset dy="1.75"/>
<feGaussianBlur stdDeviation="4.375"/>
<feComposite in2="hardAlpha" operator="out"/>
<feColorMatrix type="matrix" values="0 0 0 0 0 0 0 0 0 0 0 0 0 0 0 0 0 0 0.08 0"/>
<feBlend mode="normal" in2="BackgroundImageFix" result="effect1_dropShadow_3640_44914"/>
<feBlend mode="normal" in="SourceGraphic" in2="effect1_dropShadow_3640_44914" result="shape"/>
</filter>
<filter id="filter2_d_3640_44914" x="289.417" y="119.167" width="79.1665" height="79.1665" filterUnits="userSpaceOnUse" color-interpolation-filters="sRGB">
<feFlood flood-opacity="0" result="BackgroundImageFix"/>
<feColorMatrix in="SourceAlpha" type="matrix" values="0 0 0 0 0 0 0 0 0 0 0 0 0 0 0 0 0 0 127 0" result="hardAlpha"/>
<feOffset dy="1.75"/>
<feGaussianBlur stdDeviation="4.375"/>
<feComposite in2="hardAlpha" operator="out"/>
<feColorMatrix type="matrix" values="0 0 0 0 0 0 0 0 0 0 0 0 0 0 0 0 0 0 0.08 0"/>
<feBlend mode="normal" in2="BackgroundImageFix" result="effect1_dropShadow_3640_44914"/>
<feBlend mode="normal" in="SourceGraphic" in2="effect1_dropShadow_3640_44914" result="shape"/>
</filter>
<clipPath id="clip0_3640_44914">
<rect width="74" height="74" fill="white" transform="matrix(-1 0 0 1 156 120)"/>
</clipPath>
<clipPath id="clip1_3640_44914">
<rect width="74" height="74" fill="white" transform="matrix(-1 0 0 1 261 120)"/>
</clipPath>
<clipPath id="clip2_3640_44914">
<rect width="74" height="74" fill="white" transform="matrix(-1 0 0 1 366 120)"/>
</clipPath>
</defs>
</svg>
