<svg width="297" height="361" viewBox="0 0 297 361" fill="none" xmlns="http://www.w3.org/2000/svg">
<g filter="url(#filter0_i_3586_44307)">
<circle cx="140" cy="190" r="140" fill="url(#paint0_linear_3586_44307)"/>
</g>
<g filter="url(#filter1_d_3586_44307)">
<rect x="21" y="7" width="126.875" height="170.625" rx="7" fill="white"/>
<path d="M86.4219 164.156C83.9062 164.156 82.125 162.812 82.125 160.969C82.125 159.531 83.1875 158.359 84.5469 158.141V158.078C83.3594 157.828 82.5469 156.797 82.5469 155.562C82.5469 153.812 84.1875 152.531 86.4219 152.531C88.6406 152.531 90.2812 153.812 90.2812 155.562C90.2812 156.797 89.4531 157.828 88.2812 158.078V158.141C89.6406 158.359 90.7188 159.531 90.7188 160.969C90.7188 162.812 88.9219 164.156 86.4219 164.156ZM86.4219 162.547C87.75 162.547 88.625 161.828 88.625 160.781C88.625 159.719 87.6875 158.938 86.4219 158.938C85.1406 158.938 84.2031 159.719 84.2188 160.781C84.2031 161.828 85.0781 162.547 86.4219 162.547ZM86.4219 157.422C87.5156 157.422 88.2969 156.734 88.2969 155.75C88.2969 154.797 87.5312 154.125 86.4219 154.125C85.2969 154.125 84.5312 154.781 84.5312 155.75C84.5312 156.734 85.3125 157.422 86.4219 157.422ZM94.3438 162.891L93.0312 167.266H91.5469L92.3594 162.891H94.3438ZM96.2969 161.891V160.266L101.188 152.688H103.719V160.219H105.203V161.891H103.719V164H101.781V161.891H96.2969ZM98.375 160.219H101.812V155H101.688L98.375 160.141V160.219ZM110.938 164.156C108.422 164.156 106.641 162.812 106.641 160.969C106.641 159.531 107.703 158.359 109.062 158.141V158.078C107.875 157.828 107.062 156.797 107.062 155.562C107.062 153.812 108.703 152.531 110.938 152.531C113.156 152.531 114.797 153.812 114.797 155.562C114.797 156.797 113.969 157.828 112.797 158.078V158.141C114.156 158.359 115.234 159.531 115.234 160.969C115.234 162.812 113.438 164.156 110.938 164.156ZM110.938 162.547C112.266 162.547 113.141 161.828 113.141 160.781C113.141 159.719 112.203 158.938 110.938 158.938C109.656 158.938 108.719 159.719 108.734 160.781C108.719 161.828 109.594 162.547 110.938 162.547ZM110.938 157.422C112.031 157.422 112.812 156.734 112.812 155.75C112.812 154.797 112.047 154.125 110.938 154.125C109.812 154.125 109.047 154.781 109.047 155.75C109.047 156.734 109.828 157.422 110.938 157.422ZM117.344 164L122.25 154.469V154.391H116.562V152.688H124.359V154.422L119.453 164H117.344Z" fill="#800025"/>
<path d="M128.41 164L127.275 159.625H125.826V158.463H126.975L125.84 154.102H127.303L128.342 158.463H130.092L131.186 154.102H132.689L133.783 158.463H135.533L136.572 154.102H138.035L136.9 158.463H138.049V159.625H136.6L135.451 164H133.947L132.812 159.625H131.062L129.928 164H128.41ZM128.629 159.625L129.148 161.826H129.244L129.805 159.625H128.629ZM131.377 158.463H132.512L131.979 156.426H131.896L131.377 158.463ZM134.084 159.625L134.631 161.84H134.713L135.246 159.625H134.084Z" fill="#800025"/>
<rect x="93.3612" y="29.2062" width="40.75" height="50.375" rx="5.5" transform="rotate(11.7296 93.3612 29.2062)" stroke="#DADADA" stroke-width="3"/>
<path d="M96.9459 82.0378L95.9141 87.0069C95.8945 87.1015 95.9553 87.1941 96.0499 87.2138L101.876 88.4234M108.94 84.5282L107.908 89.4972C107.889 89.5918 107.796 89.6526 107.701 89.633L101.876 88.4234M101.876 88.4234C99.9728 98.3054 91.4667 113.161 72.6652 93.5292C53.8637 73.897 44.5711 86.8024 42.2749 95.7091" stroke="#DADADA" stroke-width="3"/>
<path d="M98.6879 57.1342L111.878 42.837C112.001 42.7041 112.22 42.8217 112.177 42.9973L109.459 54.0826C109.437 54.1728 109.489 54.2646 109.578 54.2917L118.379 56.9696C118.507 57.0086 118.546 57.1712 118.449 57.2637L103.075 71.9277C102.94 72.0567 102.723 71.9121 102.791 71.7378L107.25 60.2377C107.286 60.1431 107.235 60.0372 107.138 60.0072L98.7649 57.4201C98.6419 57.3821 98.6006 57.2288 98.6879 57.1342Z" stroke="#DADADA" stroke-width="3"/>
<mask id="path-8-inside-1_3586_44307" fill="white">
<rect x="37.6682" y="92.0718" width="9.625" height="13.125" rx="0.875" transform="rotate(11.7296 37.6682 92.0718)"/>
</mask>
<rect x="37.6682" y="92.0718" width="9.625" height="13.125" rx="0.875" transform="rotate(11.7296 37.6682 92.0718)" stroke="#DADADA" stroke-width="6" mask="url(#path-8-inside-1_3586_44307)"/>
<rect x="31.5" y="117.25" width="89.25" height="10.5" rx="5.25" fill="#F9F9F9"/>
<rect x="31.5" y="133.875" width="57.75" height="10.5" rx="5.25" fill="#F9F9F9"/>
</g>
<g filter="url(#filter2_d_3586_44307)">
<rect x="42.875" y="211.75" width="159.25" height="138.25" rx="7" fill="white"/>
<path d="M57.875 328.562V339.875H55.8281V331.156H55.7344C55.5156 331.531 54.5625 331.984 53.2812 332V330.359C54.9375 330.344 55.875 329.031 55.9219 328.562H57.875ZM60.625 339.875V338.406L64.625 334.547C65.7656 333.406 66.3594 332.734 66.3594 331.781C66.3594 330.734 65.5312 330.062 64.4219 330.062C63.25 330.062 62.5 330.797 62.5156 331.938H60.5781C60.5625 329.797 62.1719 328.406 64.4375 328.406C66.75 328.406 68.3125 329.781 68.3125 331.688C68.3125 332.969 67.6875 334 65.4688 336.094L63.4531 338.094V338.172H68.4844V339.875H60.625ZM72.5469 338.766L71.2344 343.141H69.75L70.5625 338.766H72.5469ZM73.7188 332.188C73.7188 329.938 75.3906 328.406 77.7031 328.406C79.9688 328.406 81.7656 329.859 81.7656 332.203C81.75 333.344 81.2969 334.469 80.1875 336.047L77.5156 339.875H75.3906L78.3281 335.719C78.0312 335.812 77.7188 335.859 77.4062 335.859C75.2656 335.859 73.7188 334.344 73.7188 332.188ZM75.6719 332.141C75.6719 333.375 76.5 334.25 77.7188 334.25C78.9375 334.25 79.7812 333.375 79.7812 332.156C79.7812 330.922 78.9375 330.047 77.7188 330.047C76.5 330.047 75.6719 330.922 75.6719 332.141ZM83.25 339.875L88.1562 330.344V330.266H82.4688V328.562H90.2656V330.297L85.3594 339.875H83.25ZM91.9062 339.875V338.406L95.9062 334.547C97.0469 333.406 97.6406 332.734 97.6406 331.781C97.6406 330.734 96.8125 330.062 95.7031 330.062C94.5312 330.062 93.7812 330.797 93.7969 331.938H91.8594C91.8438 329.797 93.4531 328.406 95.7188 328.406C98.0312 328.406 99.5938 329.781 99.5938 331.688C99.5938 332.969 98.9688 334 96.75 336.094L94.7344 338.094V338.172H99.7656V339.875H91.9062Z" fill="#800025"/>
<path d="M104.535 339.875L103.4 335.5H101.951V334.338H103.1L101.965 329.977H103.428L104.467 334.338H106.217L107.311 329.977H108.814L109.908 334.338H111.658L112.697 329.977H114.16L113.025 334.338H114.174V335.5H112.725L111.576 339.875H110.072L108.938 335.5H107.188L106.053 339.875H104.535ZM104.754 335.5L105.273 337.701H105.369L105.93 335.5H104.754ZM107.502 334.338H108.637L108.104 332.301H108.021L107.502 334.338ZM110.209 335.5L110.756 337.715H110.838L111.371 335.5H110.209Z" fill="#800025"/>
<rect x="130.126" y="228.28" width="33.6583" height="41.6792" rx="4.43333" transform="rotate(11.7296 130.126 228.28)" stroke="#DADADA" stroke-width="2.8"/>
<path d="M132.996 272.129L132.137 276.27C132.12 276.349 132.171 276.426 132.25 276.443L137.105 277.451M142.992 274.205L142.132 278.345C142.115 278.424 142.038 278.475 141.959 278.459L137.105 277.451M137.105 277.451C135.519 285.686 128.43 298.066 112.763 281.705C97.0946 265.345 89.3508 276.1 87.4373 283.522" stroke="#DADADA" stroke-width="2.8"/>
<path d="M134.448 251.376L145.44 239.462C145.542 239.351 145.725 239.449 145.689 239.595L143.424 248.833C143.406 248.908 143.449 248.985 143.523 249.007L150.858 251.239C150.964 251.271 150.997 251.407 150.916 251.484L138.104 263.704C137.992 263.811 137.811 263.691 137.868 263.546L141.583 253.962C141.614 253.883 141.571 253.795 141.49 253.77L134.513 251.614C134.41 251.582 134.376 251.455 134.448 251.376Z" stroke="#DADADA" stroke-width="2.8"/>
<mask id="path-17-inside-2_3586_44307" fill="white">
<rect x="83.5984" y="280.491" width="8.02083" height="10.9375" rx="0.729167" transform="rotate(11.7296 83.5984 280.491)"/>
</mask>
<rect x="83.5984" y="280.491" width="8.02083" height="10.9375" rx="0.729167" transform="rotate(11.7296 83.5984 280.491)" stroke="#DADADA" stroke-width="5.6" mask="url(#path-17-inside-2_3586_44307)"/>
<rect x="52.5" y="312.125" width="77" height="7" rx="3.5" fill="#F9F9F9"/>
</g>
<g filter="url(#filter3_d_3586_44307)">
<rect x="76.125" y="168" width="200.375" height="67.375" rx="7" fill="#F9BC1F"/>
<rect opacity="0.4" x="154.875" y="181.125" width="47.25" height="7" rx="3.5" fill="white"/>
<rect opacity="0.4" x="154.875" y="194.25" width="70.875" height="7" rx="3.5" fill="white"/>
<g opacity="0.6">
<rect x="117.563" y="178.765" width="21.9994" height="27.2352" rx="2.9079" transform="rotate(11.7296 117.563 178.765)" stroke="white" stroke-width="1.8"/>
<path d="M119.448 207.406L118.886 210.109C118.876 210.16 118.909 210.211 118.96 210.221L122.129 210.879M125.972 208.761L125.411 211.464C125.4 211.515 125.35 211.548 125.298 211.537L122.129 210.879M122.129 210.879C121.094 216.255 116.467 224.337 106.239 213.657C96.0114 202.977 90.9564 209.998 89.7073 214.843" stroke="white" stroke-width="1.8"/>
<path d="M120.395 193.858L127.57 186.081C127.637 186.009 127.756 186.073 127.732 186.168L126.254 192.198C126.242 192.247 126.27 192.297 126.319 192.312L131.106 193.769C131.176 193.79 131.197 193.879 131.144 193.929L122.781 201.906C122.708 201.976 122.59 201.897 122.627 201.803L125.052 195.547C125.072 195.495 125.044 195.438 124.992 195.421L120.437 194.014C120.37 193.993 120.347 193.91 120.395 193.858Z" stroke="white" stroke-width="1.8"/>
<mask id="path-25-inside-3_3586_44307" fill="white">
<rect x="87.2014" y="212.864" width="5.23586" height="7.13981" rx="0.475987" transform="rotate(11.7296 87.2014 212.864)"/>
</mask>
<rect x="87.2014" y="212.864" width="5.23586" height="7.13981" rx="0.475987" transform="rotate(11.7296 87.2014 212.864)" stroke="white" stroke-width="3.6" mask="url(#path-25-inside-3_3586_44307)"/>
</g>
<path d="M209.578 222.625L214.344 213.312V213.234H208.797V211.312H216.781V213.266L212.016 222.625H209.578ZM218.922 221.469L217.578 225.922H215.922L216.703 221.469H218.922ZM220.797 220.625V218.766L225.578 211.312H228.531V218.734H229.969V220.625H228.531V222.625H226.297V220.625H220.797ZM223.172 218.734H226.328V213.891H226.219L223.172 218.641V218.734ZM231.312 218.953C231.328 217.766 231.797 216.641 232.812 215.172L235.5 211.312H237.891L235.047 215.344C235.344 215.281 235.656 215.234 235.984 215.234C238.094 215.234 239.641 216.734 239.641 218.906C239.641 221.234 237.891 222.781 235.516 222.781C233.219 222.781 231.312 221.375 231.312 218.953ZM233.625 218.984C233.625 220.125 234.391 220.938 235.5 220.938C236.609 220.938 237.375 220.125 237.375 218.984C237.375 217.844 236.594 217.047 235.5 217.047C234.391 217.047 233.625 217.844 233.625 218.984ZM245.406 222.781C243.047 222.781 241.328 221.391 241.281 219.438H243.562C243.609 220.328 244.422 220.922 245.406 220.922C246.578 220.922 247.406 220.094 247.406 218.922C247.406 217.719 246.562 216.891 245.375 216.875C244.531 216.875 243.938 217.188 243.594 217.828H241.469L242.078 211.312H249.047V213.234H244.016L243.703 216.094H243.797C244.219 215.531 245.062 215.141 246.062 215.141C248.141 215.141 249.688 216.688 249.688 218.859C249.688 221.141 247.953 222.781 245.406 222.781Z" fill="white"/>
<path d="M254.244 222.625L253.164 218.291H251.688V217.047H252.863L251.783 212.727H253.465L254.436 217.047H255.967L257.006 212.727H258.633L259.672 217.047H261.23L262.188 212.727H263.855L262.789 217.047H263.951V218.291H262.475L261.395 222.625H259.645L258.578 218.291H257.061L255.994 222.625H254.244ZM254.709 218.291L255.119 220.164H255.215L255.666 218.291H254.709ZM257.361 217.047H258.277L257.854 215.324H257.785L257.361 217.047ZM259.973 218.291L260.424 220.178H260.52L260.943 218.291H259.973Z" fill="white"/>
</g>
<defs>
<filter id="filter0_i_3586_44307" x="0" y="50" width="280" height="282" filterUnits="userSpaceOnUse" color-interpolation-filters="sRGB">
<feFlood flood-opacity="0" result="BackgroundImageFix"/>
<feBlend mode="normal" in="SourceGraphic" in2="BackgroundImageFix" result="shape"/>
<feColorMatrix in="SourceAlpha" type="matrix" values="0 0 0 0 0 0 0 0 0 0 0 0 0 0 0 0 0 0 127 0" result="hardAlpha"/>
<feOffset dy="4"/>
<feGaussianBlur stdDeviation="1"/>
<feComposite in2="hardAlpha" operator="arithmetic" k2="-1" k3="1"/>
<feColorMatrix type="matrix" values="0 0 0 0 1 0 0 0 0 1 0 0 0 0 1 0 0 0 0.5 0"/>
<feBlend mode="normal" in2="shape" result="effect1_innerShadow_3586_44307"/>
</filter>
<filter id="filter1_d_3586_44307" x="12.25" y="0" width="144.375" height="188.125" filterUnits="userSpaceOnUse" color-interpolation-filters="sRGB">
<feFlood flood-opacity="0" result="BackgroundImageFix"/>
<feColorMatrix in="SourceAlpha" type="matrix" values="0 0 0 0 0 0 0 0 0 0 0 0 0 0 0 0 0 0 127 0" result="hardAlpha"/>
<feOffset dy="1.75"/>
<feGaussianBlur stdDeviation="4.375"/>
<feComposite in2="hardAlpha" operator="out"/>
<feColorMatrix type="matrix" values="0 0 0 0 0 0 0 0 0 0 0 0 0 0 0 0 0 0 0.08 0"/>
<feBlend mode="normal" in2="BackgroundImageFix" result="effect1_dropShadow_3586_44307"/>
<feBlend mode="normal" in="SourceGraphic" in2="effect1_dropShadow_3586_44307" result="shape"/>
</filter>
<filter id="filter2_d_3586_44307" x="34.125" y="204.75" width="176.75" height="155.75" filterUnits="userSpaceOnUse" color-interpolation-filters="sRGB">
<feFlood flood-opacity="0" result="BackgroundImageFix"/>
<feColorMatrix in="SourceAlpha" type="matrix" values="0 0 0 0 0 0 0 0 0 0 0 0 0 0 0 0 0 0 127 0" result="hardAlpha"/>
<feOffset dy="1.75"/>
<feGaussianBlur stdDeviation="4.375"/>
<feComposite in2="hardAlpha" operator="out"/>
<feColorMatrix type="matrix" values="0 0 0 0 0 0 0 0 0 0 0 0 0 0 0 0 0 0 0.08 0"/>
<feBlend mode="normal" in2="BackgroundImageFix" result="effect1_dropShadow_3586_44307"/>
<feBlend mode="normal" in="SourceGraphic" in2="effect1_dropShadow_3586_44307" result="shape"/>
</filter>
<filter id="filter3_d_3586_44307" x="56.125" y="150" width="240.375" height="107.375" filterUnits="userSpaceOnUse" color-interpolation-filters="sRGB">
<feFlood flood-opacity="0" result="BackgroundImageFix"/>
<feColorMatrix in="SourceAlpha" type="matrix" values="0 0 0 0 0 0 0 0 0 0 0 0 0 0 0 0 0 0 127 0" result="hardAlpha"/>
<feOffset dy="2"/>
<feGaussianBlur stdDeviation="10"/>
<feComposite in2="hardAlpha" operator="out"/>
<feColorMatrix type="matrix" values="0 0 0 0 0.891346 0 0 0 0 0.697177 0 0 0 0 0.311971 0 0 0 0.5 0"/>
<feBlend mode="normal" in2="BackgroundImageFix" result="effect1_dropShadow_3586_44307"/>
<feBlend mode="normal" in="SourceGraphic" in2="effect1_dropShadow_3586_44307" result="shape"/>
</filter>
<linearGradient id="paint0_linear_3586_44307" x1="9.10275e-07" y1="167.75" x2="280" y2="199.25" gradientUnits="userSpaceOnUse">
<stop offset="0.442308" stop-color="#FFE9E9"/>
<stop offset="1" stop-color="#FFD374" stop-opacity="0.2"/>
</linearGradient>
</defs>
</svg>
