<svg width="80" height="70" viewBox="0 0 80 70" fill="none" xmlns="http://www.w3.org/2000/svg">
<path d="M59.6264 58.7976C70.8782 57.283 78.4013 43.5067 76.4297 28.0275C74.4581 12.5482 63.7384 1.2277 52.4865 2.74235C41.2347 4.257 33.7116 18.0333 35.6832 33.5125C37.6548 48.9917 48.3745 60.3123 59.6264 58.7976Z" fill="white" stroke="#800025" stroke-width="4.2" stroke-miterlimit="10"/>
<path d="M59.1191 54.7568C65.8164 53.8552 70.2053 44.9572 68.9221 34.8824C67.6388 24.8077 61.1694 17.3714 54.4721 18.2729C47.7749 19.1744 43.386 28.0725 44.6692 38.1472C45.9524 48.222 52.4219 55.6583 59.1191 54.7568Z" fill="#800025"/>
<path d="M36.8788 63.3219C47.6447 59.6337 52.4802 44.6375 47.6794 29.8268C42.8785 15.0161 30.2592 5.99953 19.4933 9.6877C8.72745 13.3759 3.89188 28.3722 8.69275 43.1828C13.4936 57.9935 26.1129 67.0101 36.8788 63.3219Z" fill="white" stroke="#800025" stroke-width="4.2" stroke-miterlimit="10"/>
<path d="M30.9899 61.8572C38.8991 59.1477 42.6657 48.7913 39.4029 38.7256C36.1401 28.6599 27.0835 22.6965 19.1743 25.406C11.2651 28.1155 7.49854 38.4719 10.7613 48.5376C14.0241 58.6034 23.0808 64.5668 30.9899 61.8572Z" fill="#800025"/>
</svg>
