<svg width="15" height="21" viewBox="0 0 15 21" fill="none" xmlns="http://www.w3.org/2000/svg">
<path d="M2.1821 0.437822C4.06585 -0.525835 6.39537 0.147537 7.46531 2.00072L14.5625 14.2934L14.6452 14.4542C14.8219 14.8361 14.8745 15.266 14.7924 15.6818L13.9824 19.7827L13.9547 19.8911C13.7888 20.4189 13.2154 20.7188 12.6783 20.5357L8.72091 19.1872C8.26252 19.0309 7.87643 18.7128 7.63428 18.2934L0.537109 6.00072C-0.56741 4.08764 0.0881274 1.64114 2.00121 0.536621L2.1821 0.437822ZM2.84754 7.20172L8.84705 17.5932C8.9197 17.719 9.03584 17.8146 9.17336 17.8615L12.697 19.0623L13.4189 15.4103C13.4471 15.2678 13.4224 15.1194 13.3497 14.9936L7.35019 4.60211L2.84754 7.20172ZM2.70141 1.74939C1.45793 2.46732 1.03196 4.05705 1.74988 5.30053L2.14734 5.98895L6.65 3.38934L6.25254 2.70092C5.53465 1.4575 3.94486 1.0316 2.70141 1.74939Z" fill="white" fill-opacity="0.6"/>
</svg>
