<svg width="24" height="24" viewBox="0 0 24 24" fill="none" xmlns="http://www.w3.org/2000/svg">
<mask id="path-1-inside-1_3000_21761" fill="white">
<path d="M12 1C13.6569 1 15 2.34315 15 4V4.58301C15.7517 4.88732 16.4466 5.30176 17.0645 5.80762L17.5977 5.5C19.0324 4.67162 20.8678 5.16298 21.6963 6.59766C22.5247 8.03253 22.0325 9.86786 20.5977 10.6963L19.9443 11.0723C19.9795 11.3767 20 11.6861 20 12C20 12.3765 19.9722 12.7467 19.9219 13.1094L20.5977 13.5C22.0324 14.3284 22.5244 16.1628 21.6963 17.5977C20.8679 19.0325 19.0325 19.5247 17.5977 18.6963L16.9199 18.3047C16.3386 18.7589 15.6941 19.135 15 19.416V20C15 21.6569 13.6569 23 12 23C10.3432 22.9999 9 21.6568 9 20V19.416C8.33883 19.1483 7.72159 18.7957 7.16211 18.3701L6.59863 18.6963C5.16376 19.5247 3.32843 19.0325 2.5 17.5977C1.67187 16.1628 2.16388 14.3284 3.59863 13.5L4.0918 13.2148C4.03145 12.8187 4 12.413 4 12C4 11.6498 4.02472 11.3051 4.06836 10.9668L3.59863 10.6963C2.16376 9.86786 1.67157 8.03253 2.5 6.59766C3.3285 5.16298 5.16384 4.67162 6.59863 5.5L7.01855 5.74219C7.61555 5.26632 8.28153 4.87391 9 4.58301V4C9 2.34319 10.3432 1.00007 12 1Z"/>
</mask>
<path d="M12 1V-0.4H11.9999L12 1ZM15 4.58301H13.6V5.52659L14.4746 5.88069L15 4.58301ZM17.0645 5.80762L16.1775 6.89083L16.9261 7.50374L17.7641 7.02028L17.0645 5.80762ZM17.5977 5.5L18.2973 6.71266L18.2977 6.71244L17.5977 5.5ZM21.6963 6.59766L22.9087 5.89766L22.9087 5.89754L21.6963 6.59766ZM20.5977 10.6963L21.296 11.9097L21.2977 11.9087L20.5977 10.6963ZM19.9443 11.0723L19.246 9.85885L18.4479 10.3182L18.5536 11.2329L19.9443 11.0723ZM19.9219 13.1094L18.5352 12.917L18.4057 13.85L19.2213 14.3215L19.9219 13.1094ZM20.5977 13.5L19.897 14.7121L19.8977 14.7124L20.5977 13.5ZM21.6963 17.5977L22.9087 18.2977L22.9088 18.2975L21.6963 17.5977ZM17.5977 18.6963L16.8972 19.9085L16.8977 19.9087L17.5977 18.6963ZM16.9199 18.3047L17.6203 17.0925L16.8023 16.6198L16.0579 17.2016L16.9199 18.3047ZM15 19.416L14.4746 18.1184L13.6 18.4725V19.416H15ZM12 23L11.9999 24.4H12V23ZM9 19.416H10.4V18.4725L9.52547 18.1184L9 19.416ZM7.16211 18.3701L8.00969 17.2558L7.26764 16.6914L6.46074 17.1585L7.16211 18.3701ZM6.59863 18.6963L7.29863 19.9087L7.3 19.9079L6.59863 18.6963ZM2.5 17.5977L1.28747 18.2975L1.28756 18.2977L2.5 17.5977ZM3.59863 13.5L4.29863 14.7124L4.29942 14.712L3.59863 13.5ZM4.0918 13.2148L4.79259 14.4268L5.61973 13.9486L5.47583 13.004L4.0918 13.2148ZM4.06836 10.9668L5.45686 11.1459L5.57632 10.2197L4.76702 9.75359L4.06836 10.9668ZM3.59863 10.6963L2.89863 11.9087L2.89997 11.9095L3.59863 10.6963ZM2.5 6.59766L1.28763 5.89754L1.28756 5.89766L2.5 6.59766ZM6.59863 5.5L5.89863 6.71244L5.89918 6.71275L6.59863 5.5ZM7.01855 5.74219L6.31911 6.95494L7.14535 7.43147L7.8912 6.83695L7.01855 5.74219ZM9 4.58301L9.52541 5.88068L10.4 5.52657V4.58301H9ZM12 1V2.4C12.8837 2.4 13.6 3.11634 13.6 4H15H16.4C16.4 1.56995 14.4301 -0.4 12 -0.4V1ZM15 4H13.6V4.58301H15H16.4V4H15ZM15 4.58301L14.4746 5.88069C15.0946 6.1317 15.6679 6.47355 16.1775 6.89083L17.0645 5.80762L17.9514 4.72441C17.2254 4.12997 16.4087 3.64294 15.5254 3.28532L15 4.58301ZM17.0645 5.80762L17.7641 7.02028L18.2973 6.71266L17.5977 5.5L16.898 4.28734L16.3648 4.59496L17.0645 5.80762ZM17.5977 5.5L18.2977 6.71244C19.0631 6.27049 20.0422 6.53287 20.4839 7.29778L21.6963 6.59766L22.9087 5.89754C21.6934 3.79309 19.0018 3.07276 16.8977 4.28756L17.5977 5.5ZM21.6963 6.59766L20.4839 7.29766C20.9255 8.06263 20.6632 9.04186 19.8977 9.48385L20.5977 10.6963L21.2977 11.9087C23.4018 10.6939 24.1239 8.00244 22.9087 5.89766L21.6963 6.59766ZM20.5977 10.6963L19.8994 9.48287L19.246 9.85885L19.9443 11.0723L20.6426 12.2857L21.296 11.9097L20.5977 10.6963ZM19.9443 11.0723L18.5536 11.2329C18.5835 11.4917 18.6 11.747 18.6 12H20H21.4C21.4 11.6252 21.3755 11.2618 21.3351 10.9116L19.9443 11.0723ZM20 12H18.6C18.6 12.3075 18.5773 12.6133 18.5352 12.917L19.9219 13.1094L21.3086 13.3018C21.3671 12.8801 21.4 12.4455 21.4 12H20ZM19.9219 13.1094L19.2213 14.3215L19.897 14.7121L20.5977 13.5L21.2983 12.2879L20.6225 11.8973L19.9219 13.1094ZM20.5977 13.5L19.8977 14.7124C20.6631 15.1544 20.9253 16.1328 20.4838 16.8978L21.6963 17.5977L22.9088 18.2975C24.1236 16.1928 23.4017 13.5023 21.2977 12.2876L20.5977 13.5ZM21.6963 17.5977L20.4839 16.8977C20.0419 17.6632 19.0626 17.9255 18.2977 17.4839L17.5977 18.6963L16.8977 19.9087C19.0024 21.1239 21.6939 20.4018 22.9087 18.2977L21.6963 17.5977ZM17.5977 18.6963L18.2981 17.4841L17.6203 17.0925L16.9199 18.3047L16.2195 19.5169L16.8972 19.9085L17.5977 18.6963ZM16.9199 18.3047L16.0579 17.2016C15.5769 17.5774 15.0453 17.8873 14.4746 18.1184L15 19.416L15.5254 20.7137C16.3429 20.3827 17.1004 19.9404 17.782 19.4078L16.9199 18.3047ZM15 19.416H13.6V20H15H16.4V19.416H15ZM15 20H13.6C13.6 20.8837 12.8837 21.6 12 21.6V23V24.4C14.4301 24.4 16.4 22.4301 16.4 20H15ZM12 23L12.0001 21.6C11.1164 21.6 10.4 20.8836 10.4 20H9H7.6C7.6 22.4301 9.57005 24.3999 11.9999 24.4L12 23ZM9 20H10.4V19.416H9H7.6V20H9ZM9 19.416L9.52547 18.1184C8.97977 17.8974 8.47079 17.6066 8.00969 17.2558L7.16211 18.3701L6.31453 19.4844C6.97239 19.9848 7.69789 20.3992 8.47453 20.7137L9 19.416ZM7.16211 18.3701L6.46074 17.1585L5.89726 17.4846L6.59863 18.6963L7.3 19.9079L7.86348 19.5818L7.16211 18.3701ZM6.59863 18.6963L5.89863 17.4839C5.13366 17.9255 4.15443 17.6632 3.71244 16.8977L2.5 17.5977L1.28756 18.2977C2.50242 20.4018 5.19385 21.1239 7.29863 19.9087L6.59863 18.6963ZM2.5 17.5977L3.71253 16.8978C3.27101 16.1328 3.53317 15.1544 4.29863 14.7124L3.59863 13.5L2.89863 12.2876C0.794582 13.5023 0.0727251 16.1928 1.28747 18.2975L2.5 17.5977ZM3.59863 13.5L4.29942 14.712L4.79259 14.4268L4.0918 13.2148L3.39101 12.0029L2.89784 12.288L3.59863 13.5ZM4.0918 13.2148L5.47583 13.004C5.42602 12.677 5.4 12.3418 5.4 12H4H2.6C2.6 12.4842 2.63687 12.9603 2.70777 13.4257L4.0918 13.2148ZM4 12H5.4C5.4 11.7157 5.42007 11.4311 5.45686 11.1459L4.06836 10.9668L2.67986 10.7877C2.62938 11.1791 2.6 11.5839 2.6 12H4ZM4.06836 10.9668L4.76702 9.75359L4.2973 9.48308L3.59863 10.6963L2.89997 11.9095L3.36969 12.18L4.06836 10.9668ZM3.59863 10.6963L4.29863 9.48385C3.53307 9.04186 3.27078 8.06263 3.71244 7.29766L2.5 6.59766L1.28756 5.89766C0.0723689 8.00244 0.794438 10.6939 2.89863 11.9087L3.59863 10.6963ZM2.5 6.59766L3.71237 7.29778C4.15409 6.53287 5.13316 6.27049 5.89863 6.71244L6.59863 5.5L7.29863 4.28756C5.19452 3.07276 2.50291 3.79309 1.28763 5.89754L2.5 6.59766ZM6.59863 5.5L5.89918 6.71275L6.31911 6.95494L7.01855 5.74219L7.718 4.52943L7.29808 4.28725L6.59863 5.5ZM7.01855 5.74219L7.8912 6.83695C8.3847 6.44357 8.93406 6.12011 9.52541 5.88068L9 4.58301L8.47459 3.28534C7.629 3.62771 6.84639 4.08907 6.14591 4.64743L7.01855 5.74219ZM9 4.58301H10.4V4H9H7.6V4.58301H9ZM9 4H10.4C10.4 3.11644 11.1164 2.40004 12.0001 2.4L12 1L11.9999 -0.4C9.57005 -0.399903 7.6 1.56993 7.6 4H9Z" fill="white" mask="url(#path-1-inside-1_3000_21761)"/>
<circle cx="12" cy="12" r="2.3" stroke="white" stroke-width="1.4"/>
</svg>
