<svg width="40" height="40" viewBox="0 0 40 40" fill="none" xmlns="http://www.w3.org/2000/svg">
<rect width="40" height="40" fill="white"/>
<circle cx="19.7998" cy="15.0984" r="5.09842" fill="#66021F" stroke="#66021F" stroke-width="1.4"/>
<path d="M19.8 23.3333H18.5467C14.8648 23.3333 11.88 26.318 11.88 29.9999H27.72C27.72 26.318 24.7353 23.3333 21.0534 23.3333H19.8Z" fill="#66021F" stroke="#66021F" stroke-width="1.4" stroke-linejoin="round"/>
<ellipse cx="3.18084" cy="3.18083" rx="3.18084" ry="3.18083" transform="matrix(-1 0 0 1 11.8481 15.6667)" fill="#66021F" stroke="#66021F" stroke-width="1.4"/>
<path d="M8.66724 24.2524H9.07612C10.8316 24.2524 12.3996 25.3504 13 27L12 28.5454H3.88001C3.88001 26.1745 5.80204 24.2524 8.17299 24.2524H8.66724Z" fill="#66021F" stroke="#66021F" stroke-width="1.4" stroke-linejoin="round"/>
<ellipse cx="30.3327" cy="18.8476" rx="3.18084" ry="3.18083" fill="#66021F" stroke="#66021F" stroke-width="1.4"/>
<path d="M30.3328 24.2524H29.46C27.964 24.2524 26.6081 25.1332 26 26.5L27.5 28.5454H35.12C35.12 26.1745 33.198 24.2524 30.827 24.2524H30.3328Z" fill="#66021F" stroke="#66021F" stroke-width="1.4" stroke-linejoin="round"/>
</svg>
