<svg width="40" height="40" viewBox="0 0 40 40" fill="none" xmlns="http://www.w3.org/2000/svg">
<rect width="40" height="40" fill="white"/>
<circle cx="19.7998" cy="15.0984" r="5.09842" stroke="#B5B5B5" stroke-width="1.4"/>
<path d="M11.88 29.9999C11.88 26.318 14.8648 23.3333 18.5467 23.3333H19.8H21.0534C24.7353 23.3333 27.72 26.318 27.72 29.9999" stroke="#B5B5B5" stroke-width="1.4" stroke-linejoin="round"/>
<ellipse cx="30.4527" cy="19.1808" rx="3.18084" ry="3.18083" stroke="#B5B5B5" stroke-width="1.4"/>
<path d="M35.24 28.8787C35.24 26.5077 33.318 24.5857 30.947 24.5857H30.4528L30.0074 24.5701C28.7312 24.5255 27.4973 25.0316 26.62 25.9595" stroke="#B5B5B5" stroke-width="1.4" stroke-linejoin="round"/>
<ellipse cx="3.18084" cy="3.18083" rx="3.18084" ry="3.18083" transform="matrix(-1 0 0 1 12.5681 16)" stroke="#B5B5B5" stroke-width="1.4"/>
<path d="M4.59998 28.8787C4.59998 26.5077 6.52201 24.5857 8.89296 24.5857H9.38721L9.83259 24.5701C11.1088 24.5255 12.3426 25.0316 13.22 25.9595" stroke="#B5B5B5" stroke-width="1.4" stroke-linejoin="round"/>
</svg>
