<svg width="40" height="40" viewBox="0 0 40 40" fill="none" xmlns="http://www.w3.org/2000/svg">
<rect width="40" height="40" fill="white"/>
<mask id="path-1-inside-1_1187_33798" fill="white">
<path d="M13.6797 8C16.2663 8 18.5527 9.25025 19.9443 11.1641C21.3468 9.2499 23.6526 8.00098 26.2598 8.00098C30.5344 8.00107 33.9998 11.3582 34 15.5C34 19.642 32.8127 21.9586 27.8076 26C23.1635 29.7499 23.1635 29.7501 20.0674 32C20.0006 32 19.9381 31.9751 19.877 31.9307C19.8589 31.9538 19.8427 31.978 19.8242 32C16.7523 29.75 16.7515 29.7499 12.1436 26C7.17769 21.9587 6 19.642 6 15.5C6.00006 11.3581 9.43839 8.00017 13.6797 8Z"/>
</mask>
<path d="M13.6797 8V6.6H13.6796L13.6797 8ZM19.9443 11.1641L18.812 11.9874L19.94 13.5387L21.0736 11.9915L19.9443 11.1641ZM26.2598 8.00098L26.2598 6.60098H26.2598V8.00098ZM34 15.5H35.4V15.4999L34 15.5ZM27.8076 26L28.6871 27.0892H28.6871L27.8076 26ZM20.0674 32V33.4H20.5224L20.8904 33.1325L20.0674 32ZM19.877 31.9307L20.6993 30.7976L19.6046 30.0031L18.7729 31.0698L19.877 31.9307ZM19.8242 32L18.997 33.1295L20.0551 33.9044L20.8974 32.8991L19.8242 32ZM12.1436 26L11.2599 27.0859L11.2599 27.0859L12.1436 26ZM6 15.5L4.6 15.5V15.5H6ZM13.6797 8V9.4C15.8068 9.4 17.6771 10.4265 18.812 11.9874L19.9443 11.1641L21.0766 10.3407C19.4284 8.07398 16.7257 6.6 13.6797 6.6V8ZM19.9443 11.1641L21.0736 11.9915C22.2171 10.4308 24.1066 9.40098 26.2598 9.40098V8.00098V6.60098C23.1985 6.60098 20.4765 8.06898 18.815 10.3366L19.9443 11.1641ZM26.2598 8.00098L26.2597 9.40098C29.8033 9.40105 32.5998 12.1728 32.6 15.5001L34 15.5L35.4 15.4999C35.3998 10.5435 31.2655 6.60108 26.2598 6.60098L26.2598 8.00098ZM34 15.5H32.6C32.6 17.4201 32.3279 18.7686 31.5675 20.0892C30.7772 21.4617 29.394 22.9197 26.9281 24.9108L27.8076 26L28.6871 27.0892C31.2263 25.039 32.9393 23.318 33.994 21.4863C35.0785 19.6028 35.4 17.722 35.4 15.5H34ZM27.8076 26L26.9281 24.9108C22.2934 28.653 22.3137 28.6369 19.2444 30.8675L20.0674 32L20.8904 33.1325C24.0132 30.8632 24.0335 30.8468 28.6871 27.0892L27.8076 26ZM20.0674 32V30.6C20.3746 30.6 20.594 30.7212 20.6993 30.7976L19.877 31.9307L19.0546 33.0637C19.2823 33.2289 19.6266 33.4 20.0674 33.4V32ZM19.877 31.9307L18.7729 31.0698C18.7587 31.0881 18.7468 31.1039 18.7391 31.1143C18.7352 31.1196 18.7317 31.1244 18.7293 31.1276C18.7265 31.1315 18.7254 31.1329 18.7241 31.1347C18.7217 31.1379 18.7237 31.1352 18.7276 31.1301C18.7318 31.1247 18.7399 31.1143 18.7511 31.1009L19.8242 32L20.8974 32.8991C20.9362 32.8528 20.9664 32.8117 20.9774 32.7968C20.9804 32.7928 20.9836 32.7883 20.9851 32.7863C20.987 32.7837 20.9878 32.7826 20.9883 32.782C20.9892 32.7807 20.9862 32.7848 20.981 32.7915L19.877 31.9307ZM19.8242 32L20.6515 30.8705C17.6061 28.64 17.6255 28.6562 13.0272 24.9141L12.1436 26L11.2599 27.0859C15.8774 30.8436 15.8985 30.86 18.997 33.1295L19.8242 32ZM12.1436 26L13.0272 24.9141C10.5813 22.9236 9.2093 21.466 8.42522 20.0934C7.67028 18.7717 7.4 17.4216 7.4 15.5H6H4.6C4.6 17.7204 4.91856 19.5996 5.99393 21.4822C7.04016 23.3137 8.73994 25.0351 11.2599 27.0859L12.1436 26ZM6 15.5L7.4 15.5C7.40005 12.1624 10.1802 9.40014 13.6797 9.4L13.6797 8L13.6796 6.6C8.69662 6.6002 4.60008 10.5538 4.6 15.5L6 15.5Z" fill="#B5B5B5" mask="url(#path-1-inside-1_1187_33798)"/>
</svg>
