<svg width="40" height="40" viewBox="0 0 40 40" fill="none" xmlns="http://www.w3.org/2000/svg">
<rect width="40" height="40" fill="white"/>
<path d="M26.8507 30.5192C31.3514 29.9133 34.3607 24.4028 33.572 18.2111C32.7834 12.0194 28.4955 7.49123 23.9948 8.09709C19.494 8.70295 16.4848 14.2135 17.2734 20.4051C18.0621 26.5968 22.35 31.1251 26.8507 30.5192Z" fill="white" stroke="#66021F" stroke-width="1.4" stroke-miterlimit="10"/>
<path d="M26.648 28.9028C29.3269 28.5421 31.0824 24.9829 30.5691 20.953C30.0558 16.9231 27.4681 13.9486 24.7892 14.3092C22.1103 14.6698 20.3547 18.229 20.868 22.2589C21.3813 26.2888 23.9691 29.2634 26.648 28.9028Z" fill="#66021F"/>
<path d="M17.7515 32.3289C22.0579 30.8536 23.9921 24.8551 22.0717 18.9308C20.1514 13.0065 15.1037 9.39991 10.7973 10.8752C6.49098 12.3504 4.55675 18.349 6.4771 24.2732C8.39745 30.1975 13.4452 33.8041 17.7515 32.3289Z" fill="white" stroke="#66021F" stroke-width="1.4" stroke-miterlimit="10"/>
<path d="M15.3963 31.7431C18.56 30.6593 20.0667 26.5167 18.7615 22.4904C17.4564 18.4641 13.8337 16.0788 10.6701 17.1626C7.50642 18.2464 5.99978 22.389 7.3049 26.4152C8.61002 30.4415 12.2327 32.8269 15.3963 31.7431Z" fill="#66021F"/>
</svg>
